<svg width="210" height="171" viewBox="0 0 210 171" fill="none" xmlns="http://www.w3.org/2000/svg">
<path d="M72.0247 78.8473C79.0403 81.7816 87.6881 77.4872 91.3395 69.256C94.9908 61.0248 92.2621 51.973 85.2453 49.0387C78.2297 46.1044 69.5818 50.3988 65.9305 58.63C62.2792 66.8612 65.0078 75.913 72.0247 78.8473ZM79.0021 76.3723C73.7998 75.5637 70.3628 70.1735 71.3262 64.3336C72.2895 58.4936 77.2873 54.4157 82.4896 55.2243C87.6918 56.033 91.1288 61.4232 90.1655 67.2631C89.2021 73.1031 84.2044 77.181 79.0021 76.3723Z" fill="white"/>
<path d="M144.779 80.1089C151.884 77.3636 154.873 68.3764 151.454 60.0351C148.036 51.6939 139.505 47.1578 132.401 49.9031C125.295 52.6485 122.307 61.6357 125.725 69.9769C129.144 78.3182 137.674 82.8542 144.779 80.1089ZM140.819 77.9282C135.6 78.622 130.698 74.4376 129.872 68.5821C129.045 62.7266 132.608 57.4166 137.827 56.7216C143.047 56.0278 147.948 60.2122 148.775 66.0677C149.602 71.9232 146.039 77.2332 140.819 77.9282Z" fill="white"/>
<path d="M81.6056 62.653C81.0129 61.2839 81.8381 59.6411 83.4487 58.9836C85.0593 58.3262 86.8455 58.9031 87.4382 60.2722C88.0308 61.6413 87.2056 63.2842 85.595 63.9416C83.9844 64.5991 82.1982 64.0221 81.6056 62.653Z" fill="white"/>
<path d="M139.145 63.346C138.571 61.9736 139.413 60.3459 141.024 59.7103C142.636 59.0747 144.408 59.672 144.982 61.0444C145.556 62.4168 144.714 64.0445 143.103 64.6801C141.491 65.3156 139.719 64.7183 139.145 63.346Z" fill="white"/>
<path d="M96.1301 85.7567C105.628 88.2771 116.186 85.515 123.393 79.1619C123.504 78.7109 123.552 78.3616 123.234 77.9717C121.511 75.834 119.648 76.7073 117.523 77.9717C113.834 80.1632 110.475 81.9982 106.044 82.1728C104.72 82.2266 102.532 82.1644 99.4809 81.985C97.4088 81.8594 96.1486 82.7374 95.7014 84.6203C95.5905 85.0844 95.8123 85.4469 96.1301 85.7567Z" fill="white"/>
<path d="M51.6639 33.5094C50.6205 35.8803 50.1573 38.5491 50.2719 41.5157C50.2879 41.8853 50.0305 42.2155 49.656 42.3028C42.2486 44.0098 36.3713 49.1057 33.8989 56.0701C31.8958 61.7354 32.4108 67.4809 35.4424 73.3065C35.5582 73.5218 35.5324 73.7192 35.3661 73.8986C34.4175 74.9333 33.2682 75.8879 32.4379 77.004C22.0949 90.8251 30.5272 109.298 47.9794 111.087C48.5928 111.149 49.4909 111.217 50.6723 111.289C50.9359 111.307 51.1133 111.435 51.2057 111.672C51.34 112.021 51.6048 112.741 52.0015 113.83C53.8087 118.731 58.2804 123.127 63.4248 125.264C69.9698 127.985 76.5789 127.586 83.252 124.068C83.4775 123.952 83.7559 124.012 83.9099 124.209C91.8432 134.522 106.278 136 116.268 127.563C116.593 127.291 117.077 127.297 117.396 127.577C126.783 135.825 140.582 134.441 148.909 125.405C149.13 125.172 149.476 125.097 149.774 125.218C159.141 129.056 168.888 126.845 175.673 119.477C175.838 119.296 175.822 119.02 175.636 118.86C175.576 118.808 175.503 118.772 175.424 118.757C172.911 118.287 170.385 115.873 168.868 114.911C167.719 114.19 166.083 113.649 163.96 113.291C160.948 112.781 160.866 108.834 163.351 107.497C163.544 107.394 163.618 107.24 163.572 107.033C163.055 104.716 163.837 103.268 165.919 102.69C166.166 102.622 166.337 102.405 166.342 102.152C166.387 100.037 167.317 98.8398 169.132 98.5623C169.962 98.4367 171.075 98.7369 172.469 99.463C175.949 101.282 178.135 104.043 179.025 107.746C179.081 107.961 179.212 108.113 179.419 108.203C182.258 109.399 192.719 111.254 194.905 108.975C195.062 108.809 195.151 108.614 195.169 108.39C195.372 105.881 194.994 103.389 194.033 100.915C191.222 93.6482 187.443 87.4841 183.019 81.5078C181.722 79.7649 181.03 78.3306 180.942 77.205C180.458 71.2155 188.017 68.8087 191.687 73.535C197.414 80.9168 201.898 88.7305 205.138 96.9761C205.285 97.3529 205.402 97.3433 205.491 96.9498C206.701 91.7785 206.022 86.935 203.456 82.4229C203.162 81.9049 203.183 81.2721 203.511 80.7757L205.602 77.6093C205.375 73.6115 205.184 71.0456 205.028 69.9116C203.92 61.9053 196.769 55.2435 189.597 51.8152C189.304 51.674 189.119 51.3821 189.119 51.0628C189.188 42.2562 188.393 33.4364 179.601 29.0332C172.941 25.6993 165.741 25.1682 158.333 26.2771C157.79 26.3572 157.266 26.0486 157.094 25.5438C155.326 20.3725 152.179 16.0757 147.651 12.6569C142.736 8.93306 134.518 9.10053 128.863 11.3925C125.65 12.6964 123.012 14.8484 119.288 15.4525C112.103 16.3269 110.51 22.4707 111.064 28.3597C111.124 29.0009 110.801 29.6193 110.234 29.953C104.925 33.0991 102.086 37.9055 102.833 44.1175C102.976 45.3364 103.299 46.8784 103.802 48.7421C103.848 48.9167 103.779 49.0292 103.594 49.0782L103.393 49.1249C103.047 49.2146 102.823 49.0938 102.722 48.7624C99.9996 40.1664 102.312 33.4735 109.659 28.6827C109.771 28.6109 109.841 28.4901 109.846 28.3597C109.883 27.051 109.95 25.655 110.047 24.1717C110.366 19.3246 113.231 14.5314 118.812 14.3842C108.593 4.60274 94.1382 5.39584 85.1799 16.0039C83.422 18.0877 82.5006 20.3534 80.9496 23.4588C80.755 23.8463 80.3325 24.0736 79.8902 24.0306C68.7921 22.9217 59.6133 24.515 52.9525 33.7379C52.8145 33.9353 52.6248 34.0023 52.3846 33.9401C52.1444 33.8778 51.9042 33.7343 51.6652 33.5094H51.6639ZM141.136 16.4082C143.541 17.0398 145.694 18.4275 147.595 20.5699C147.936 20.9551 148.091 21.3223 148.059 21.6728C148.033 21.9312 147.798 22.1214 147.531 22.0963C147.412 22.0855 147.302 22.0329 147.222 21.9479C145.29 19.9646 143.567 18.3581 140.797 17.632C138.021 16.8987 135.702 17.437 133.002 18.2038C132.747 18.2815 132.475 18.1428 132.395 17.8951C132.358 17.7815 132.367 17.6595 132.42 17.5518C132.577 17.2336 132.903 16.992 133.396 16.8257C136.152 15.9118 138.731 15.7731 141.136 16.4094V16.4082ZM80.3201 31.0093C79.4406 28.5427 82.8985 25.1407 88.0428 23.4109C93.1872 21.6812 98.0717 22.2781 98.9512 24.7447C99.8308 27.2113 96.3729 30.6134 91.2285 32.3431C86.0841 34.0728 81.1997 33.4759 80.3201 31.0093ZM118.857 28.0379C119.928 25.6 124.887 25.3177 129.934 27.4075C134.982 29.4973 138.204 33.1685 137.134 35.6076C136.063 38.0455 131.104 38.3278 126.056 36.238C121.009 34.1482 117.787 30.477 118.857 28.0379ZM170.655 42.834C176.608 44.5637 179.481 48.5507 179.274 54.7938C179.265 55.0904 179.018 55.3261 178.72 55.3201C178.693 55.3201 178.664 55.3165 178.637 55.3117L178.603 55.3045C178.314 55.2567 178.103 54.972 178.104 54.6323C178.141 48.7301 175.339 45.1379 169.7 43.8555C169.488 43.8065 169.328 43.6893 169.222 43.5062C168.633 42.505 168.371 40.8171 167.962 39.9774C166.083 36.0645 162.597 34.3838 157.502 34.9353C157.243 34.9616 157.082 34.8528 157.018 34.6063L156.955 34.385C156.884 34.1303 157.038 33.8683 157.301 33.8001C157.323 33.7941 157.346 33.7893 157.37 33.7869C164.15 32.9986 168.368 35.8014 170.025 42.1964C170.103 42.5026 170.343 42.7466 170.655 42.8351V42.834ZM53.8296 45.2671C55.0984 39.396 58.9272 36.3038 65.3145 35.9904C65.62 35.9748 65.8812 36.1973 65.8972 36.4868C65.8984 36.5095 65.8972 36.5323 65.8972 36.555L65.8898 36.5885C65.8689 36.8696 65.5991 37.0969 65.2529 37.1268C59.2253 37.579 55.7895 40.5731 54.9445 46.108C54.9174 46.3138 54.8102 46.4776 54.6254 46.5985C53.6559 47.2444 51.9596 47.6404 51.1367 48.1045C47.3018 50.2338 45.8753 53.7267 46.8583 58.5846C46.9039 58.831 46.8054 58.9973 46.5602 59.0822L46.3385 59.1564C46.0872 59.2473 45.8088 59.1229 45.7152 58.8789C45.7065 58.8549 45.6991 58.831 45.6942 58.8071C44.3231 52.3487 46.8337 48.0578 53.226 45.9334C53.5364 45.8317 53.7655 45.5781 53.8284 45.2683L53.8296 45.2671ZM71.4222 80.2924C63.6588 77.0614 60.5804 67.1615 64.5446 58.1791C68.5088 49.1978 78.0153 44.535 85.7786 47.766C93.542 50.997 96.6205 60.8969 92.6563 69.8793C88.6921 78.8605 79.1856 83.5234 71.4222 80.2924ZM145.168 81.4886C137.281 84.4744 127.923 79.5113 124.267 70.4044C120.609 61.2964 124.039 51.4922 131.925 48.5064C139.812 45.5207 149.17 50.4838 152.827 59.5906C156.484 68.6986 153.055 78.5029 145.168 81.4886ZM48.8811 72.0361L48.5768 72.0899C48.3181 72.1342 48.1568 72.0361 48.0927 71.7944C46.2375 65.1662 48.0163 57.8453 55.7144 55.9086C55.8203 55.8799 55.9337 55.917 55.9977 56.0031L56.116 56.1778C56.2712 56.3847 56.2207 56.6766 56.0039 56.8273C55.9595 56.8584 55.9115 56.8812 55.8598 56.8967C48.7641 58.9674 47.7736 65.2188 49.1102 71.7203C49.1361 71.871 49.0376 72.011 48.891 72.0349C48.8885 72.0349 48.8848 72.0349 48.8823 72.0361H48.8811ZM106.626 80.6608C111.168 80.1094 114.448 78.0184 117.592 76.2707C118.709 75.6475 119.619 75.303 120.32 75.236C123.906 74.8998 125.74 78.5364 125.609 81.448C125.305 87.9889 121.733 92.708 115.502 95.1614C110.642 97.0706 105.676 96.8218 100.603 94.415C101.66 98.4929 103.764 102.077 106.917 105.164C108.227 106.45 109.494 107.594 110.717 108.593C111.059 108.87 111.168 109.339 110.981 109.735C108.883 114.098 108.246 118.239 111.147 122.273C111.252 122.415 111.221 122.61 111.078 122.709L110.829 122.884C110.732 122.951 110.647 122.94 110.573 122.85C107.45 118.985 107.907 114.36 109.722 110.105C109.958 109.547 109.78 108.904 109.286 108.539C104.218 104.815 100.293 99.7453 99.3516 93.4664C96.825 91.2881 94.6027 88.7341 94.3464 85.6551C94.1161 82.8894 95.4859 81.2255 98.4585 80.6596L100.958 80.552C101.183 80.5424 101.358 80.357 101.348 80.1393C101.345 80.0687 101.323 80.0005 101.283 79.9407C97.0529 73.6953 98.4868 66.3146 102.972 60.5057C103.068 60.3825 103.246 60.3526 103.374 60.4387L103.609 60.593C103.832 60.7366 103.894 61.0297 103.747 61.2522C100.396 66.2129 97.8561 72.4524 101.477 78.004C102.012 78.8282 102.471 79.546 102.854 80.1548C102.971 80.3367 103.17 80.4515 103.387 80.4647L106.627 80.6596L106.626 80.6608ZM169.001 84.9026C169.922 83.2889 169.971 81.5688 169.818 79.8402C169.803 79.6728 169.919 79.5208 170.088 79.4838L170.344 79.4299C170.545 79.3821 170.747 79.5017 170.796 79.6967C170.799 79.7039 170.8 79.7122 170.801 79.7194C171.203 81.826 170.928 83.7303 169.977 85.4338C168.994 87.1144 167.475 88.3489 165.421 89.1373C165.229 89.2114 165.012 89.1193 164.936 88.9327C164.934 88.9267 164.931 88.9207 164.93 88.9148L164.84 88.6731C164.783 88.514 164.857 88.3382 165.012 88.2628C166.598 87.4697 168.08 86.5151 169 84.9014L169.001 84.9026ZM62.1042 91.2223C63.4753 92.4592 65.1716 92.9101 66.9086 93.1853C67.0773 93.2092 67.2018 93.3527 67.1993 93.5214L67.1919 93.7702C67.1882 93.9712 67.0207 94.1303 66.8186 94.1279C66.8112 94.1279 66.8039 94.1279 66.7977 94.1279C64.6234 94.0023 62.8101 93.2941 61.3564 92.0034C59.9262 90.6899 59.0676 88.9829 58.7806 86.8812C58.7535 86.6862 58.8964 86.5068 59.1008 86.4793C59.1045 86.4793 59.1082 86.4793 59.112 86.4781L59.3682 86.4517C59.5406 86.4374 59.6983 86.5462 59.7353 86.7077C60.1443 88.3753 60.7257 89.9818 62.103 91.2247L62.1042 91.2223ZM144.702 110.206C146.232 109.157 147.036 107.645 147.665 106.052C147.724 105.895 147.893 105.807 148.059 105.844L148.308 105.905C148.509 105.95 148.635 106.143 148.589 106.334C148.589 106.339 148.586 106.344 148.585 106.348C148.012 108.388 146.931 109.965 145.338 111.081C143.723 112.166 141.831 112.629 139.661 112.472C139.459 112.459 139.307 112.285 139.321 112.086C139.321 112.082 139.321 112.078 139.321 112.076L139.349 111.827C139.366 111.661 139.509 111.534 139.681 111.532C141.439 111.485 143.177 111.257 144.7 110.207L144.702 110.206ZM144.771 118.636C144.526 118.613 144.307 118.677 144.113 118.824C143.73 119.129 143.128 119.617 142.306 120.289C138.63 123.294 133.681 121.606 130.579 118.75C130.463 118.642 130.459 118.532 130.565 118.421L130.731 118.233C130.86 118.098 131.071 118.08 131.216 118.192C135.28 121.453 139.87 122.098 143.324 117.762C143.589 117.429 144.025 117.27 144.452 117.351C150.051 118.4 154.013 116.209 156.339 110.777C156.402 110.626 156.565 110.54 156.733 110.569L156.961 110.609C157.188 110.646 157.34 110.853 157.302 111.074C157.297 111.101 157.29 111.127 157.28 111.154C155.018 116.796 150.848 119.29 144.77 118.636H144.771ZM77.1825 117.957L77.2453 118.252C77.3008 118.503 77.2035 118.667 76.9546 118.743C70.1361 120.834 62.4516 119.381 60.111 111.906C60.0814 111.806 60.1196 111.696 60.2083 111.631L60.3808 111.503C60.5927 111.344 60.8969 111.383 61.0608 111.589C61.0928 111.63 61.1187 111.676 61.1359 111.725C63.58 118.61 70.1361 119.321 76.8438 117.748C76.9965 117.715 77.148 117.806 77.1813 117.951C77.1813 117.953 77.1813 117.955 77.1825 117.957ZM82.9835 115.046C85.1023 118.253 88.543 118.662 92.0871 117.869C92.5392 117.771 92.7659 117.948 92.7659 118.4V118.696C92.7659 118.88 92.6464 119.044 92.4678 119.099C87.8568 120.564 84.4162 119.491 82.1458 115.879C82.0152 115.674 82.0201 115.413 82.1593 115.214L82.2838 115.039C82.4094 114.852 82.6693 114.803 82.8628 114.929C82.9108 114.96 82.9515 115 82.9823 115.046H82.9835Z" fill="#6A82F9"/>
<path d="M21.1 85.1326C17.7221 77.7508 15.3212 70.083 13.8996 62.1281C13.8626 61.908 13.918 61.713 14.0659 61.5432L17.0015 58.2021C17.7073 56.7595 18.1484 55.8228 18.3233 55.3922C19.039 53.6039 18.7015 52.1409 17.3131 51.0021C15.6008 50.2628 14.2112 50.3609 13.1457 51.2975C12.239 52.0978 11.8793 53.7043 11.4013 54.8874C11.3335 55.0692 11.1266 55.1613 10.9393 55.0955C10.8494 55.0632 10.7767 54.9986 10.7361 54.9149C9.75302 52.9519 9.01883 50.5858 8.5347 47.8165C8.1331 45.5102 4.48425 45.0868 2.93452 46.7005C1.47351 48.2268 2.28409 51.5141 2.88649 53.2952C2.9604 53.5105 2.90004 53.6804 2.70663 53.806C0.643219 55.1589 -0.240051 56.9856 0.055603 59.2847C0.304443 61.1939 1.86279 62.3566 2.22989 64.2729C4.23787 74.7734 7.8855 86.1686 12.5938 94.2419C18.3331 104.09 27.9628 111.29 39.6214 112.951C43.0645 113.363 46.3943 113.354 49.6108 112.924C49.9385 112.88 50.1602 113.009 50.2748 113.314C51.8442 117.563 54.3807 120.962 57.8829 123.512C65.1424 128.791 73.0807 129.75 81.6978 126.389C81.938 126.295 82.0895 126.369 82.1548 126.61L86.5231 142.24L91.4728 159.638C91.5332 159.853 91.4494 159.974 91.224 160C89.6915 160.193 88.143 160.388 86.5785 160.585C82.3051 161.132 79.2747 162.893 77.4884 165.869C77.8112 166.922 78.2781 167.689 78.8866 168.168C79.9941 169.033 81.2284 169.649 82.5909 170.016C87.5431 171.361 92.4534 171.278 97.3231 169.768C99.4789 169.1 100.978 167.565 101.823 165.162L99.3446 144.719L98.1817 134.447C98.162 134.27 98.2926 134.111 98.4749 134.09C98.4995 134.088 98.5242 134.088 98.5476 134.09C104.358 134.799 109.559 133.62 114.152 130.554C114.913 130.048 115.719 129.52 116.568 128.968C116.808 128.811 117.041 128.822 117.267 129.002C120.766 131.847 124.733 133.548 129.167 134.104C129.421 134.132 129.605 134.355 129.576 134.601L128.586 143.3L125.935 165.391C127.232 167.896 129.135 169.447 131.646 170.043C136.511 171.203 141.223 171.1 145.783 169.733C147.924 169.092 149.374 168.012 150.13 166.492C149.964 164.709 149.174 163.47 147.763 162.775C144.195 161.022 140.419 160.117 136.437 160.059C136.277 160.054 136.15 159.924 136.155 159.768C136.155 159.743 136.16 159.719 136.167 159.695L142.259 139.46L144.453 131.097C144.461 131.054 144.483 131.016 144.515 130.99L149.624 126.62C149.729 126.53 149.88 126.506 150.012 126.559C154.06 128.15 158.281 128.634 162.675 128.011C168.523 126.936 173.297 124.168 176.998 119.709C177.151 119.535 177.339 119.476 177.566 119.535C184.524 121.364 191.495 122.311 198.404 120.025C205.611 117.639 208 110.136 206.753 103.467C206.303 101.088 205.923 100.079 206.462 98.1427C208.027 92.5994 207.445 87.1913 204.718 81.9208C204.602 81.6923 204.623 81.4746 204.781 81.2688C211.974 71.8713 209.918 59.2727 201.568 51.4949C199.108 49.4015 196.311 47.8261 193.178 46.7687C192.961 46.6969 192.873 46.5509 192.914 46.332C196.431 28.2619 180.473 14.5413 162.398 19.953C162.204 20.0104 162 19.9063 161.942 19.7209C161.938 19.7113 161.936 19.7006 161.933 19.6898C157.71 1.45702 134.283 -3.98818 121.705 9.85329C121.506 10.0686 121.321 10.059 121.15 9.82697C108.696 -6.84475 82.1117 -1.3864 78.623 19.2783C78.5811 19.5199 78.4407 19.6121 78.2005 19.5534C72.8935 18.307 68.1507 18.5091 63.9734 20.1587C54.7699 23.7845 49.7217 30.7106 48.8261 40.9383C48.8125 41.144 48.7016 41.2768 48.4935 41.3354C34.0175 45.3822 27.6548 60.1041 33.9621 73.2207C34.0262 73.3547 34.004 73.4743 33.8931 73.5771C28.2991 78.9637 25.9265 85.4472 26.7765 93.0253C26.8369 93.5588 26.6817 93.6234 26.3121 93.2203C24.1748 90.8673 22.4378 88.1722 21.0987 85.1326H21.1ZM205.604 77.6096L203.513 80.776C203.185 81.2724 203.163 81.904 203.458 82.4232C206.024 86.9365 206.702 91.7788 205.493 96.9501C205.405 97.3448 205.287 97.3532 205.139 96.9764C201.899 88.7297 197.415 80.916 191.688 73.5353C188.02 68.809 180.46 71.2158 180.944 77.2053C181.031 78.3297 181.723 79.764 183.021 81.5081C187.444 87.4844 191.224 93.6485 194.035 100.916C194.995 103.389 195.373 105.881 195.171 108.391C195.152 108.614 195.065 108.809 194.907 108.976C192.719 111.255 182.259 109.399 179.421 108.203C179.213 108.113 179.082 107.961 179.027 107.746C178.136 104.044 175.951 101.284 172.471 99.4634C171.077 98.7373 169.965 98.437 169.134 98.5626C167.32 98.8401 166.39 100.038 166.343 102.152C166.338 102.404 166.167 102.623 165.921 102.691C163.839 103.269 163.057 104.716 163.574 107.033C163.62 107.239 163.547 107.394 163.352 107.497C160.868 108.835 160.95 112.781 163.962 113.292C166.085 113.651 167.722 114.19 168.87 114.911C170.386 115.873 172.913 118.286 175.426 118.757C175.67 118.804 175.829 119.034 175.781 119.27C175.765 119.347 175.729 119.419 175.675 119.476C168.891 126.844 159.143 129.055 149.776 125.217C149.476 125.096 149.131 125.171 148.911 125.405C140.582 134.44 126.785 135.825 117.398 127.576C117.079 127.295 116.595 127.29 116.27 127.563C106.28 136 91.8448 134.52 83.9115 124.208C83.7575 124.011 83.4791 123.951 83.2537 124.067C76.5805 127.585 69.9715 127.984 63.4264 125.263C58.2833 123.126 53.8103 118.73 52.0031 113.829C51.6064 112.74 51.3404 112.02 51.2073 111.671C51.1149 111.433 50.9375 111.306 50.6739 111.288C49.4925 111.216 48.5945 111.149 47.981 111.086C30.5288 109.297 22.0966 90.8242 32.4395 77.0031C33.2698 75.887 34.4191 74.9325 35.3677 73.8977C35.534 73.7183 35.5599 73.5209 35.4441 73.3056C32.4124 67.48 31.8975 61.7334 33.9005 56.0693C36.3717 49.1049 42.249 44.009 49.6576 42.302C50.0321 42.2158 50.2896 41.8857 50.2735 41.5148C50.1577 38.5482 50.6222 35.8795 51.6656 33.5085C55.9575 22.7665 67.7824 17.5964 79.0184 21.032C79.2513 21.1049 79.5013 20.9805 79.5765 20.7544C79.5839 20.7305 79.59 20.7066 79.5937 20.6827C80.7431 12.7637 84.7356 7.08523 91.5701 3.6473C102.106 -1.66392 114.7 2.26925 120.82 11.8558C120.991 12.1237 121.354 12.2074 121.629 12.0412C121.687 12.0065 121.739 11.961 121.782 11.9096C131.251 0.273954 148.752 0.509609 157.364 12.8247C159.076 15.2722 160.189 18.0211 160.701 21.0726C160.78 21.5416 161.237 21.8598 161.72 21.782C161.784 21.7712 161.847 21.7545 161.906 21.7318C167.887 19.3788 174.707 19.4661 180.37 22.3909C189.481 27.1028 194.291 37.4286 191.287 47.2041C191.226 47.4098 191.3 47.545 191.508 47.6072C200.361 50.3453 205.721 56.1159 207.591 64.9177C208.449 68.9645 207.787 73.1955 205.604 77.6096ZM36.878 108.741C38.1382 109.998 40.3051 110.496 42.0913 111.141C42.424 111.262 42.4905 111.464 42.2921 111.746L42.1258 111.982C42.1123 112.002 42.0876 112.013 42.063 112.008C38.8231 111.41 34.1013 110.798 30.5781 109.118C23.0463 105.52 17.2626 100.075 13.2294 92.7825C12.6714 91.7788 11.8978 90.1269 10.9098 87.8277C10.7484 87.4473 10.3468 86.2798 9.70499 84.3252C9.39578 83.379 8.96461 82.2163 8.41026 80.8358C6.19533 75.332 4.52612 69.5531 3.40511 63.499C3.30409 62.9607 2.80519 62.0444 1.90961 60.7501C0.524963 58.7512 0.887131 56.8348 2.99612 55.0022C3.18584 54.836 3.32628 54.8683 3.41867 55.0967C3.65396 55.6614 3.83875 55.9951 3.97302 56.098C5.07556 56.9186 5.41061 56.6913 4.97699 55.4185C4.43742 53.8383 2.76207 49.6575 3.38417 48.1383C3.95207 46.7531 5.79375 46.478 6.79034 47.405C7.07245 47.6694 7.27324 48.2209 7.39273 49.0582C7.75983 51.599 8.43121 54.3084 10.0302 56.2248C10.7915 57.1387 11.4752 57.0872 12.0788 56.0705C12.5125 55.3539 12.8869 54.4926 13.1999 53.489C14.0449 50.7736 17.7135 51.27 17.3328 53.8323C16.9596 56.3803 14.7644 58.9689 12.6529 60.5419C12.3548 60.7692 12.2156 61.1412 12.2932 61.5037C13.1752 65.6809 14.2199 69.7074 15.4296 73.5843C17.132 79.0427 18.5401 82.9459 19.6525 85.2953C21.7159 89.6472 24.0257 93.1198 26.5819 95.7156C27.3013 96.4465 27.8741 97.3245 28.2991 98.3509C29.8451 102.066 32.1759 105.105 35.2913 107.466C36.1549 108.12 36.6833 108.546 36.8768 108.744L36.878 108.741ZM174.271 108.795C174.4 108.772 174.519 108.69 174.63 108.546C174.777 108.363 174.779 108.107 174.638 107.921C172.796 105.56 170.92 104.411 168.04 102.873C167.831 102.76 167.703 102.595 167.652 102.375C166.848 99.0339 170.247 99.504 172.033 100.573C175.26 102.501 177.17 105.243 177.765 108.802C177.807 109.052 177.995 109.254 178.243 109.32C182.295 110.396 185.799 111.097 188.753 111.424C189.556 111.514 191.033 111.435 193.184 111.189C194.684 111.019 195.692 110.409 196.209 109.36C196.957 107.84 196.396 104.23 196.001 102.826C194.917 98.949 193.041 94.7191 190.373 90.134C188.689 87.2476 186.985 84.5908 185.264 82.1612C184.267 80.77 183.104 79.6264 182.592 77.7316C181.595 74.0281 185.16 71.3988 188.684 72.6154C189.495 72.8977 190.393 73.747 191.377 75.1633C196.617 82.6995 200.626 88.8505 203.804 96.8843C205.07 100.091 206.179 104.413 206.019 107.446C205.139 123.963 185.105 120.998 174.319 117.341C173.497 117.063 172.71 116.563 171.958 115.842C169.78 113.767 167.267 112.562 164.419 112.226C163.392 112.103 162.624 111.222 162.64 110.183V110.109C163.01 108.764 163.813 108.137 165.05 108.226C167.127 108.364 169.296 109.101 171.558 110.437C171.756 110.554 171.913 110.516 172.028 110.323C172.121 110.166 172.126 110.018 172.042 109.879C171.76 109.417 171.574 109.164 171.482 109.119C169.478 108.093 167.381 107.428 165.189 107.123C164.972 107.092 164.817 106.979 164.725 106.787C163.734 104.649 165.75 103.15 167.792 104.003C170.096 104.967 172.08 106.54 173.746 108.722C173.825 108.825 174 108.85 174.272 108.796L174.271 108.795ZM93.0016 160.74L84.0987 127.894C83.6737 126.326 84.0063 126.157 85.0953 127.39C87.989 130.664 92.0112 132.325 96.3523 133.757C96.6135 133.843 96.7995 134.07 96.8303 134.342C98.1226 146.639 99.2436 156.433 100.195 163.726C100.617 166.966 97.5497 168.539 94.8642 169.07C89.4784 170.132 84.4548 169.548 79.7933 167.315C79.1096 166.99 78.8287 166.186 79.1663 165.52C79.1761 165.499 79.1872 165.48 79.1983 165.46C80.9636 162.368 88.876 161.319 92.5458 161.313C92.8057 161.313 93.0176 161.112 93.0201 160.863C93.0201 160.822 93.0151 160.78 93.0028 160.741L93.0016 160.74ZM134.498 160.686C134.432 160.873 134.538 161.075 134.734 161.138C134.763 161.148 134.793 161.154 134.823 161.156C138.055 161.412 147.727 162.205 148.599 165.721C148.704 166.13 148.535 166.559 148.177 166.796C146.57 167.858 144.863 168.582 143.053 168.967C138.872 169.863 135.099 169.788 131.735 168.739C129.069 167.912 126.936 166.165 127.464 163.233C127.607 162.435 127.68 162.016 127.685 161.975C129.44 147.706 130.577 138.545 131.099 134.493C131.131 134.242 131.276 134.124 131.535 134.137C135.486 134.294 139.067 133.526 142.28 131.831C142.415 131.755 142.589 131.801 142.666 131.934C142.703 131.996 142.713 132.07 142.695 132.141C140.055 142.735 137.322 152.25 134.498 160.685V160.686Z" fill="#000C3A"/>
<path d="M80.3202 31.0094C81.1998 33.476 86.083 34.0729 91.2286 32.3431C96.373 30.6134 99.8309 27.2114 98.9513 24.7447C98.0717 22.2781 93.1885 21.6812 88.0429 23.411C82.8986 25.1407 79.4406 28.5427 80.3202 31.0094ZM81.4252 30.6541C80.7686 28.8322 83.8828 26.1144 88.3829 24.5845C92.883 23.0545 97.0628 23.2913 97.7206 25.1132C98.3772 26.935 95.263 29.6528 90.7629 31.1828C86.2628 32.7128 82.083 32.4759 81.4252 30.6541Z" fill="#000C3A"/>
<path d="M118.856 28.038C117.785 30.4759 121.008 34.1471 126.055 36.2381C131.102 38.3279 136.062 38.0468 137.132 35.6077C138.203 33.1698 134.98 29.4986 129.933 27.4076C124.886 25.3178 119.926 25.5989 118.856 28.038ZM120.13 28.568C120.893 26.7856 125.058 26.7736 129.432 28.5416C133.805 30.3097 136.731 33.1878 135.967 34.9701C135.203 36.7525 131.038 36.7645 126.665 34.9964C122.292 33.2284 119.366 30.3503 120.13 28.568Z" fill="#000C3A"/>
<path d="M71.4223 80.2921C79.1856 83.5231 88.6921 78.8614 92.6563 69.879C96.6205 60.8978 93.5408 50.9967 85.7787 47.7657C78.0153 44.5347 68.5088 49.1964 64.5446 58.1788C60.5804 67.16 63.6601 77.0611 71.4223 80.2921ZM72.0247 78.8471C65.009 75.9128 62.2804 66.861 65.9305 58.6298C69.5818 50.3986 78.2284 46.1041 85.2453 49.0385C92.2609 51.9728 94.9895 61.0246 91.3394 69.2558C87.6881 77.487 79.0415 81.7814 72.0247 78.8471Z" fill="#000C3A"/>
<path d="M145.169 81.4896C153.056 78.5039 156.486 68.6997 152.828 59.5916C149.171 50.4836 139.813 45.5205 131.927 48.5075C124.04 51.4932 120.611 61.2974 124.268 70.4055C127.925 79.5135 137.283 84.4766 145.169 81.4896ZM144.779 80.108C137.673 82.8533 129.143 78.3173 125.725 69.976C122.307 61.6348 125.295 52.6476 132.401 49.9022C139.506 47.1569 148.037 51.693 151.455 60.0342C154.873 68.3755 151.884 77.3627 144.779 80.108Z" fill="#000C3A"/>
<path d="M106.626 80.6619H98.4571C95.4846 81.2265 94.1147 82.8916 94.3451 85.6573C94.6013 88.7364 96.8236 91.2903 99.3502 93.4686C100.093 93.7641 100.511 94.0799 100.603 94.416C105.675 96.8228 110.642 97.0716 115.502 95.1625C121.732 92.709 125.305 87.9899 125.609 81.449C125.741 78.5386 123.907 74.9009 120.319 75.237C119.618 75.304 118.708 75.6497 117.592 76.2718C114.449 78.0194 111.168 80.1104 106.626 80.6619ZM123.393 79.163C123.411 79.248 123.493 79.3066 123.636 79.3377C123.797 79.3688 123.887 79.4657 123.905 79.6271C124.923 88.6287 117.772 94.8335 108.779 94.9137C102.707 94.9675 97.9446 91.5523 95.8332 86.1202C95.7827 85.9898 95.8221 85.8918 95.9514 85.8248C96.002 85.802 96.0623 85.7805 96.1313 85.7578C95.8122 85.448 95.5917 85.0855 95.7026 84.6214C96.1498 82.7385 97.41 81.8605 99.482 81.9861C102.532 82.1655 104.72 82.2277 106.046 82.1739C110.477 81.9993 113.834 80.1643 117.524 77.9728C119.649 76.7084 121.512 75.8351 123.235 77.9728C123.554 78.3627 123.505 78.712 123.394 79.163H123.393Z" fill="#000C3A"/>
<path d="M79.0045 76.3725C84.2067 77.1812 89.2057 73.1032 90.1679 67.2633C91.1312 61.4233 87.6942 56.0332 82.4919 55.2245C77.2897 54.4159 72.2907 58.4938 71.3274 64.3337C70.364 70.1737 73.801 75.5639 79.0032 76.3725H79.0045ZM81.605 62.6531C81.0125 61.2846 81.8378 59.641 83.4479 58.983C85.0592 58.3251 86.8455 58.9029 87.438 60.2714C88.0305 61.6399 87.2052 63.2835 85.5951 63.9414C83.9838 64.5993 82.1975 64.0215 81.605 62.6531Z" fill="#23213F"/>
<path d="M140.818 77.9278C146.038 77.234 149.601 71.9228 148.774 66.0673C147.947 60.2118 143.047 56.0274 137.826 56.7212C132.607 57.415 129.044 62.7262 129.871 68.5817C130.697 74.4372 135.598 78.6216 140.818 77.9278ZM139.146 63.3459C138.572 61.9738 139.413 60.3457 141.025 59.7094C142.637 59.0742 144.409 59.6711 144.983 61.0443C145.558 62.4164 144.716 64.0445 143.104 64.6809C141.492 65.316 139.72 64.7191 139.146 63.3459Z" fill="#23213F"/>
<path d="M96.1317 85.7571C96.0627 85.7798 96.0024 85.8014 95.9518 85.8241C95.8225 85.8911 95.7831 85.9904 95.8336 86.1196C97.945 91.5516 102.708 94.9668 108.78 94.913C117.772 94.8328 124.923 88.628 123.906 79.6265C123.887 79.465 123.797 79.3693 123.636 79.337C123.493 79.3059 123.412 79.2473 123.393 79.1624C116.187 85.5155 105.63 88.2776 96.1305 85.7571H96.1317Z" fill="#23213F"/>
<path d="M81.4272 30.6537C80.7701 28.8318 83.8854 26.1143 88.3853 24.584C92.8853 23.0538 97.0659 23.2903 97.723 25.1122C98.38 26.9342 95.2647 29.6516 90.7648 31.1819C86.2648 32.7121 82.0842 32.4756 81.4272 30.6537Z" fill="#5989E2"/>
<path d="M126.669 34.9964C122.295 33.2286 119.369 30.3507 120.133 28.5685C120.897 26.7864 125.062 26.7747 129.436 28.5425C133.809 30.3103 136.735 33.1882 135.971 34.9704C135.207 36.7525 131.043 36.7642 126.669 34.9964Z" fill="#5989E2"/>
<path d="M36.8762 108.741C36.6828 108.543 36.1543 108.117 35.2908 107.463C32.1753 105.102 29.8446 102.062 28.2986 98.3478C27.8736 97.3214 27.302 96.4434 26.5813 95.7125C24.0239 93.1179 21.7141 89.6441 19.6519 85.2923C18.5395 82.9441 17.1315 79.0408 15.429 73.5812C14.2193 69.7043 13.1747 65.6778 12.2926 61.5006C12.215 61.1382 12.3555 60.7661 12.6523 60.5389C14.7638 58.9658 16.959 56.3772 17.3323 53.8293C17.7129 51.2681 14.0444 50.7705 13.1993 53.4859C12.8852 54.4896 12.5119 55.3508 12.0783 56.0674C11.4734 57.0842 10.791 57.1368 10.0297 56.2217C8.43066 54.3054 7.75928 51.5971 7.39217 49.0551C7.27268 48.2166 7.07188 47.6663 6.78978 47.402C5.79318 46.4737 3.95152 46.75 3.38362 48.1352C2.76028 49.6544 4.43564 53.8364 4.97644 55.4154C5.41007 56.6882 5.07622 56.9143 3.97245 56.0949C3.83817 55.992 3.65462 55.6583 3.4181 55.0937C3.32571 54.8652 3.18528 54.8341 2.99557 54.9992C0.886578 56.8318 0.524395 58.7481 1.90903 60.747C2.80462 62.0425 3.3023 62.9588 3.40455 63.4959C4.52557 69.5512 6.19478 75.3301 8.40971 80.8327C8.96407 82.2132 9.39523 83.3759 9.70443 84.3221C10.3462 86.2755 10.7478 87.4431 10.9092 87.8246C11.8972 90.1238 12.6696 91.7758 13.2289 92.7794C17.2621 100.072 23.0458 105.517 30.5776 109.115C34.1008 110.796 38.8226 111.407 42.0625 112.005C42.0871 112.009 42.1117 111.998 42.1253 111.979L42.2916 111.743C42.4899 111.461 42.4234 111.259 42.0908 111.138C40.3045 110.493 38.1377 109.995 36.8774 108.738L36.8762 108.741Z" fill="#5989E2"/>
<path d="M173.744 108.722C172.078 106.539 170.092 104.966 167.79 104.003C165.747 103.149 163.733 104.649 164.722 106.787C164.815 106.98 164.969 107.092 165.187 107.123C167.38 107.428 169.476 108.093 171.479 109.12C171.572 109.164 171.759 109.417 172.04 109.879C172.122 110.018 172.119 110.166 172.026 110.323C171.911 110.516 171.754 110.554 171.556 110.438C169.294 109.103 167.125 108.365 165.048 108.226C163.811 108.136 163.008 108.764 162.638 110.109V110.183C162.622 111.222 163.39 112.103 164.417 112.226C167.265 112.562 169.778 113.768 171.956 115.842C172.709 116.564 173.495 117.064 174.316 117.341C185.103 120.998 205.137 123.962 206.017 107.446C206.175 104.414 205.068 100.092 203.802 96.8846C200.625 88.8508 196.616 82.6998 191.374 75.1636C190.391 73.7473 189.493 72.898 188.681 72.6157C185.158 71.3991 181.592 74.0272 182.59 77.7319C183.102 79.6279 184.265 80.7703 185.262 82.1615C186.983 84.591 188.686 87.2478 190.37 90.1343C193.037 94.7194 194.914 98.9493 195.999 102.826C196.393 104.232 196.955 107.841 196.207 109.36C195.69 110.409 194.682 111.018 193.182 111.189C191.031 111.435 189.554 111.514 188.75 111.425C185.796 111.097 182.294 110.396 178.241 109.321C177.992 109.255 177.805 109.053 177.763 108.803C177.168 105.244 175.258 102.501 172.031 100.574C170.245 99.5043 166.846 99.0342 167.649 102.375C167.7 102.595 167.829 102.76 168.037 102.873C170.918 104.412 172.794 105.562 174.635 107.921C174.777 108.108 174.775 108.362 174.628 108.547C174.517 108.69 174.398 108.773 174.268 108.795C173.996 108.849 173.821 108.824 173.742 108.721L173.744 108.722Z" fill="#5989E2"/>
<path d="M118.813 14.3843C113.233 14.5326 110.368 19.3258 110.048 24.1717C109.951 25.655 109.885 27.051 109.848 28.3597C109.843 28.4901 109.774 28.6109 109.66 28.6827C102.313 33.4735 100.001 40.1664 102.724 48.7624C102.825 49.0938 103.049 49.2146 103.395 49.1249L103.596 49.0782C103.781 49.0292 103.85 48.9167 103.804 48.7421C103.301 46.8772 102.977 45.3365 102.835 44.1175C102.087 37.9055 104.925 33.0991 110.236 29.9531C110.804 29.6193 111.125 29.0009 111.066 28.3597C110.512 22.4707 112.105 16.3269 119.29 15.4525C119.184 14.8879 119.025 14.5314 118.812 14.3831L118.813 14.3843Z" fill="#000C3A"/>
<path d="M141.138 16.4082C138.733 15.7718 136.153 15.9106 133.398 16.8245C132.904 16.9908 132.579 17.2324 132.422 17.5506C132.306 17.7851 132.409 18.0662 132.65 18.1786C132.761 18.2301 132.886 18.2384 133.004 18.2037C135.704 17.437 138.022 16.8999 140.799 17.6319C143.568 18.358 145.292 19.9646 147.223 21.9479C147.406 22.1381 147.712 22.1501 147.908 21.973C147.996 21.8941 148.05 21.7876 148.061 21.6728C148.093 21.3235 147.939 20.9562 147.596 20.5699C145.694 18.4274 143.542 17.041 141.138 16.4082Z" fill="#000C3A"/>
<path d="M170.657 42.8341C170.345 42.7455 170.105 42.5015 170.028 42.1953C168.371 35.8003 164.153 32.9964 157.372 33.7859C157.103 33.8182 156.91 34.055 156.944 34.317C156.946 34.3397 156.951 34.3624 156.957 34.384L157.02 34.6053C157.084 34.8517 157.247 34.9617 157.504 34.9342C162.599 34.3828 166.087 36.0635 167.964 39.9763C168.373 40.816 168.636 42.5039 169.224 43.5052C169.33 43.6894 169.489 43.8054 169.702 43.8544C175.342 45.1368 178.143 48.7278 178.106 54.6312C178.105 54.9709 178.316 55.2556 178.605 55.3035L178.64 55.3106C178.933 55.3621 179.215 55.1671 179.268 54.8752C179.273 54.8477 179.275 54.8202 179.277 54.7927C179.485 48.5496 176.611 44.5638 170.657 42.8329V42.8341Z" fill="#000C3A"/>
<path d="M53.8308 45.2676C53.7679 45.5774 53.5388 45.831 53.2284 45.9327C46.8361 48.0572 44.3255 52.348 45.6966 58.8064C45.7483 59.0612 46.0033 59.2275 46.2657 59.176C46.2904 59.1712 46.3162 59.1641 46.3396 59.1557L46.5614 59.0815C46.8065 58.9966 46.9051 58.8303 46.8595 58.5839C45.8764 53.726 47.303 50.2319 51.1378 48.1038C51.962 47.6397 53.6583 47.2437 54.6265 46.5978C54.8113 46.477 54.9173 46.3131 54.9456 46.1073C55.7907 40.5724 59.2264 37.5783 65.2541 37.1261C65.6002 37.0974 65.87 36.8689 65.8909 36.5878L65.8983 36.5543C65.9217 36.266 65.6938 36.0136 65.3896 35.9909C65.3649 35.9897 65.3415 35.9885 65.3169 35.9909C58.9295 36.3043 55.1008 39.3965 53.832 45.2676H53.8308Z" fill="#000C3A"/>
<path d="M48.8847 72.0359C49.0325 72.0168 49.136 71.8792 49.115 71.7285C49.115 71.7261 49.115 71.7225 49.1138 71.7201C47.7772 65.2199 48.7676 58.9672 55.8633 56.8966C56.1195 56.8212 56.2649 56.5604 56.1898 56.3152C56.175 56.2662 56.1503 56.2195 56.1195 56.1777L56.0013 56.003C55.936 55.9169 55.8227 55.8798 55.7179 55.9085C48.0199 57.844 46.241 65.1649 48.0962 71.7943C48.1603 72.0359 48.3229 72.1352 48.5804 72.0898L48.8847 72.0359Z" fill="#000C3A"/>
<path d="M98.4579 80.6619H106.627L103.387 80.4669C103.17 80.455 102.972 80.339 102.853 80.1571C102.47 79.5471 102.011 78.8305 101.476 78.0063C97.8555 72.4535 100.396 66.2152 103.746 61.2545C103.892 61.032 103.83 60.7401 103.608 60.5953L103.373 60.441C103.245 60.3549 103.068 60.3848 102.972 60.508C98.485 66.3157 97.0523 73.6975 101.283 79.943C101.405 80.1272 101.352 80.3725 101.162 80.4921C101.1 80.5304 101.03 80.5519 100.957 80.5555L98.4579 80.6631V80.6619Z" fill="#000C3A"/>
<path d="M169.003 84.9032C168.082 86.5169 166.6 87.4715 165.015 88.2646C164.86 88.34 164.786 88.5146 164.843 88.6749L164.932 88.9166C164.998 89.1068 165.211 89.2084 165.406 89.145C165.412 89.1426 165.418 89.1414 165.424 89.139C167.478 88.3507 168.996 87.115 169.98 85.4355C170.931 83.7321 171.205 81.8278 170.804 79.7212C170.768 79.5238 170.573 79.3922 170.37 79.4269C170.363 79.4281 170.354 79.4293 170.347 79.4317L170.09 79.4855C169.922 79.5214 169.806 79.6746 169.821 79.842C169.973 81.5694 169.924 83.2907 169.004 84.9044L169.003 84.9032Z" fill="#000C3A"/>
<path d="M62.1071 91.2222C60.7298 89.9781 60.1484 88.3716 59.7394 86.7053C59.7024 86.5438 59.5448 86.4349 59.3723 86.4493L59.1161 86.4756C58.9103 86.4959 58.7613 86.6718 58.7822 86.8679C58.7822 86.8715 58.7822 86.8751 58.7835 86.8787C59.0693 88.9805 59.9279 90.6887 61.3593 92.0009C62.813 93.2916 64.6275 93.9998 66.8006 94.1254C67.0026 94.1398 67.1788 93.9902 67.1948 93.7905C67.1948 93.7833 67.1948 93.7761 67.1948 93.7689L67.2022 93.5201C67.2047 93.3515 67.0802 93.2079 66.9114 93.184C65.1733 92.9089 63.4782 92.4579 62.1071 91.221V91.2222Z" fill="#000C3A"/>
<path d="M99.3531 93.4675C100.294 99.7465 104.22 104.815 109.287 108.54C109.781 108.906 109.96 109.548 109.723 110.106C107.91 114.361 107.453 118.987 110.574 122.851C110.648 122.941 110.733 122.952 110.831 122.885L111.079 122.71C111.222 122.611 111.253 122.415 111.148 122.274C108.247 118.24 108.884 114.099 110.982 109.736C111.169 109.339 111.062 108.871 110.718 108.594C109.495 107.595 108.229 106.451 106.918 105.165C103.766 102.078 101.662 98.494 100.605 94.4161C100.512 94.08 100.095 93.7642 99.3519 93.4687L99.3531 93.4675Z" fill="#000C3A"/>
<path d="M144.703 110.208C143.18 111.257 141.442 111.485 139.684 111.532C139.512 111.534 139.369 111.661 139.351 111.827L139.324 112.076C139.305 112.276 139.451 112.453 139.653 112.472C139.657 112.472 139.659 112.472 139.663 112.472C141.832 112.629 143.725 112.165 145.34 111.081C146.933 109.965 148.014 108.387 148.587 106.349C148.641 106.158 148.524 105.962 148.325 105.908C148.32 105.907 148.315 105.906 148.31 105.905L148.061 105.844C147.895 105.807 147.725 105.896 147.667 106.052C147.037 107.645 146.234 109.157 144.704 110.206L144.703 110.208Z" fill="#000C3A"/>
<path d="M144.771 118.637C150.849 119.292 155.019 116.797 157.281 111.155C157.365 110.948 157.259 110.713 157.046 110.632C157.019 110.623 156.991 110.614 156.963 110.611L156.735 110.57C156.568 110.541 156.403 110.629 156.341 110.778C154.015 116.21 150.052 118.402 144.455 117.352C144.027 117.271 143.591 117.43 143.326 117.763C139.872 122.099 135.282 121.453 131.218 118.193C131.073 118.081 130.862 118.099 130.734 118.234L130.567 118.422C130.462 118.534 130.466 118.643 130.581 118.751C133.683 121.607 138.633 123.295 142.309 120.29C143.13 119.618 143.733 119.13 144.116 118.825C144.309 118.677 144.528 118.614 144.774 118.637H144.771Z" fill="#000C3A"/>
<path d="M77.1832 117.958C77.1536 117.812 77.0045 117.719 76.8505 117.749C76.8481 117.749 76.8456 117.749 76.8431 117.75C70.1343 119.323 63.5782 118.61 61.1353 111.727C61.0491 111.481 60.7744 111.349 60.5206 111.433C60.4701 111.45 60.4233 111.474 60.3802 111.506L60.2077 111.634C60.1203 111.7 60.0808 111.809 60.1104 111.909C62.4498 119.384 70.1343 120.836 76.954 118.745C77.2029 118.669 77.3002 118.506 77.2447 118.255L77.1819 117.96L77.1832 117.958Z" fill="#000C3A"/>
<path d="M92.0889 117.871C88.5447 118.664 85.1041 118.253 82.9852 115.047C82.8571 114.858 82.596 114.805 82.4038 114.927C82.357 114.957 82.3163 114.996 82.2855 115.041L82.1611 115.216C82.0219 115.416 82.0157 115.677 82.1475 115.881C84.4179 119.494 87.8586 120.567 92.4695 119.101C92.6482 119.045 92.7677 118.883 92.7677 118.698V118.403C92.7677 117.951 92.541 117.774 92.0889 117.872V117.871Z" fill="#000C3A"/>
<path d="M93.0019 160.739C93.0709 160.979 92.9231 161.228 92.673 161.295C92.6312 161.305 92.588 161.311 92.5449 161.311C88.8763 161.318 80.9627 162.366 79.1974 165.459C78.8266 166.108 79.0668 166.925 79.732 167.283C79.7518 167.294 79.7727 167.304 79.7924 167.314C84.4539 169.546 89.4775 170.131 94.8633 169.069C97.5488 168.538 100.616 166.965 100.194 163.724C99.2427 156.432 98.1217 146.637 96.8294 134.34C96.7999 134.07 96.6126 133.841 96.3515 133.755C92.0103 132.323 87.9882 130.663 85.0945 127.389C84.0055 126.157 83.6728 126.324 84.0979 127.892L93.0007 160.738L93.0019 160.739Z" fill="#5989E2"/>
<path d="M134.498 160.686C137.323 152.251 140.055 142.736 142.695 132.141C142.735 131.994 142.645 131.843 142.493 131.805C142.422 131.787 142.345 131.797 142.28 131.833C139.067 133.527 135.486 134.296 131.536 134.139C131.277 134.126 131.132 134.244 131.1 134.496C130.578 138.547 129.44 147.708 127.686 161.977C127.681 162.018 127.607 162.437 127.464 163.235C126.938 166.165 129.071 167.913 131.735 168.741C135.099 169.79 138.873 169.865 143.054 168.969C144.863 168.584 146.571 167.86 148.177 166.798C148.536 166.56 148.704 166.132 148.6 165.723C147.728 162.207 138.056 161.414 134.824 161.158C134.618 161.141 134.464 160.969 134.48 160.773C134.482 160.744 134.488 160.715 134.498 160.688V160.686Z" fill="#5989E2"/>
<path d="M51.6637 33.5096C51.9039 33.7333 52.1441 33.8768 52.3831 33.9402C52.6233 34.0024 52.8118 33.9354 52.951 33.7381C59.6106 24.5152 68.7906 22.9218 79.8887 24.0307C80.3297 24.075 80.7535 23.8465 80.9481 23.4589C82.4991 20.3536 83.4193 18.0879 85.1784 16.0041C94.1367 5.39602 108.592 4.60292 118.81 14.3844C119.022 14.5327 119.182 14.888 119.288 15.4538C123.012 14.8485 125.651 12.6977 128.862 11.3939C134.518 9.10191 142.736 8.93324 147.651 12.6583C152.178 16.0783 155.326 20.3739 157.094 25.5451C157.266 26.0488 157.79 26.3586 158.333 26.2784C165.74 25.1695 172.941 25.7007 179.6 29.0345C188.392 33.4378 189.188 42.2575 189.119 51.0641C189.119 51.3835 189.304 51.6766 189.597 51.8165C196.769 55.2449 203.92 61.9067 205.028 69.913C205.184 71.047 205.376 73.6129 205.602 77.6106C207.785 73.1966 208.447 68.9656 207.589 64.9187C205.72 56.117 200.359 50.3464 191.506 47.6082C191.298 47.546 191.224 47.4109 191.285 47.2051C194.289 37.4308 189.478 27.105 180.368 22.3919C174.705 19.4672 167.886 19.3798 161.904 21.7328C161.45 21.9098 160.933 21.6957 160.751 21.2555C160.726 21.1969 160.709 21.1371 160.699 21.0749C160.187 18.0233 159.075 15.2732 157.362 12.8269C148.751 0.509457 131.25 0.273801 121.78 11.9106C121.578 12.1582 121.209 12.2001 120.954 12.0051C120.9 11.9645 120.854 11.9142 120.818 11.8568C114.698 2.27029 102.106 -1.66168 91.5682 3.64834C84.7325 7.08628 80.7412 12.7635 79.5918 20.6837C79.5573 20.9194 79.3331 21.0832 79.0917 21.0498C79.067 21.0462 79.0412 21.0414 79.0178 21.033C67.7817 17.5975 55.958 22.7675 51.6649 33.5096H51.6637Z" fill="#5989E2"/>
</svg>
