<svg width="375" height="281" viewBox="0 0 375 281" fill="none" xmlns="http://www.w3.org/2000/svg">
<path d="M395.969 101.585C373.333 105.802 353.382 117.01 337.095 133.189C336.608 133.675 336.586 134.152 337.031 134.619C337.041 134.633 337.05 134.642 337.054 134.646C337.462 135.148 337.926 135.203 338.445 134.809C349.715 126.294 362.651 118.562 375.953 113.456C382.421 110.974 389.093 109.377 395.969 108.669" stroke="#C1D0EB" stroke-width="1.8"/>
<path d="M395.969 115.31C394.445 115.668 392.914 116.04 391.378 116.425C366.099 122.74 344.633 135.391 326.978 154.379C326.371 155.033 326.402 155.582 327.069 156.028C327.077 156.033 327.086 156.039 327.092 156.044C327.45 156.427 327.862 156.415 328.328 156.009C339.567 146.187 351.433 137.946 364.901 131.394C374.924 126.517 385.28 123.411 395.969 122.078" stroke="#C1D0EB" stroke-width="1.8"/>
<path d="M395.969 128.86C394.281 129.054 392.592 129.266 390.904 129.497C384.819 130.334 379.039 131.828 373.564 133.982C360.024 139.307 348.182 147.153 336.828 156.721C331.847 160.919 324.918 167.02 316.037 175.023C307.264 182.928 297.747 190.723 287.689 197.1C287.084 197.483 286.469 197.839 285.84 198.168" stroke="#C1D0EB" stroke-width="1.8"/>
<path d="M285.841 198.168C285.68 198.094 285.586 198.02 285.559 197.949C284.449 195.014 282.509 192.748 280.542 190.369C280.46 190.271 280.437 190.179 280.474 190.094" stroke="#BF8BBE" stroke-width="1.8"/>
<path d="M280.474 190.094L282.163 188.123C282.262 188.01 282.436 187.997 282.55 188.097C282.564 188.109 282.577 188.123 282.588 188.138C283.396 189.221 284.365 190.167 285.495 190.973C287.713 192.566 291.775 194.024 293.937 191.722C295.421 190.145 293.476 188.357 292.026 187.783C289.203 186.673 286.433 186.42 283.714 187.023C283.182 187.139 283.108 187.005 283.496 186.621L291.184 178.918C291.36 178.74 291.644 178.733 291.828 178.901C294.4 181.278 299.286 183.41 302.438 181.247C303.611 180.442 303.903 179.477 303.312 178.352C301.976 175.798 295.831 176.341 293.652 176.926C293.213 177.045 293.161 176.95 293.497 176.643L298.856 171.768C299.084 171.56 299.369 171.426 299.675 171.381C302.824 170.927 305.681 169.589 307.781 167.208C308.878 165.957 309.43 163.771 308.007 162.599C306.493 161.357 304.401 162.472 303.069 163.619C301.056 165.355 299.596 167.417 298.692 169.801C298.598 170.05 298.447 170.272 298.252 170.45L292.873 175.385C292.555 175.678 292.468 175.619 292.611 175.21C293.525 172.617 294.4 166.874 291.693 165.284C290.166 164.387 288.639 166.177 288.23 167.499C287.22 170.765 288.569 174.521 290.615 177.054C290.741 177.209 290.728 177.433 290.588 177.572L283.281 184.889C283.077 185.096 283.006 185.055 283.067 184.77C283.616 182.212 283.659 177.358 281.588 175.27C280.273 173.948 278.707 174.652 278.011 176.163C276.388 179.684 278.913 184.172 281.536 186.535C281.632 186.622 281.636 186.712 281.549 186.805L279.224 189.322" stroke="#C1D0EB" stroke-width="1.8"/>
<path d="M279.222 189.322L274.182 186.283" stroke="#BF8BBE" stroke-width="1.8"/>
<path d="M274.181 186.283C273.414 184.427 271.787 183.436 270.074 184.949" stroke="#C1D0EB" stroke-width="1.8"/>
<path d="M270.073 184.949L268.841 184.745C268.709 184.722 268.594 184.663 268.499 184.57C267.858 183.928 267.478 183.31 267.362 182.718C267.151 181.642 266.916 180.591 266.658 179.563" stroke="#BF8BBE" stroke-width="1.8"/>
<path d="M266.66 179.563C268.378 179.924 269.939 179.743 271.342 179.022C272.678 178.337 273.592 176.815 272.475 175.5C271.628 174.509 270.165 174.23 268.858 174.139C267.218 174.022 265.703 174.147 264.314 174.513" stroke="#C1D0EB" stroke-width="1.8"/>
<path d="M264.314 174.513L263.074 172.601" stroke="#BF8BBE" stroke-width="1.8"/>
<path d="M263.075 172.602L266.553 166.022C266.607 165.92 266.735 165.88 266.84 165.936C266.854 165.943 266.866 165.953 266.879 165.962C269.586 168.36 275.068 170.452 278.205 167.698C279.357 166.687 279.274 165.153 278.042 164.309C275.427 162.517 270.314 163.465 267.711 164.664C267.297 164.852 267.21 164.752 267.449 164.364L273.293 154.848C273.343 154.768 273.45 154.743 273.531 154.792C276.556 156.616 281.741 157.604 284.554 154.955C285.564 154.008 285.855 152.426 284.61 151.541C282.313 149.905 277.582 151.283 275.26 152.549C274.768 152.817 274.679 152.718 274.994 152.254C276.412 150.177 277.694 148.317 278.842 146.673C279.442 145.814 280.059 145.702 281.108 145.204C283.397 144.116 285.211 142.451 286.546 140.209C288.777 136.473 285.179 133.043 282.011 136.644C280.299 138.588 279.229 140.682 278.803 142.929C278.772 143.086 278.633 143.618 278.386 144.526C278.248 145.039 278.013 145.522 277.682 145.979C276.417 147.71 275.218 149.469 274.08 151.257C273.793 151.711 273.682 151.671 273.742 151.138C274.04 148.565 273.673 144.734 271.905 142.546C270.526 140.846 268.463 141.67 267.941 143.589C266.944 147.278 269.44 151.28 272.283 153.491C272.372 153.559 272.394 153.685 272.335 153.782L266.809 162.78C266.779 162.828 266.715 162.843 266.667 162.813C266.637 162.793 266.618 162.761 266.619 162.724C266.591 160.416 266.063 158.247 265.037 156.215C264.333 154.821 263.14 153.112 261.59 153.343C259.157 153.71 259.415 157.279 260.14 158.919C261.25 161.441 263.028 163.359 265.475 164.67C265.589 164.732 265.632 164.874 265.57 164.989L262.084 171.279" stroke="#C1D0EB" stroke-width="1.8"/>
<path d="M262.08 171.283L259.857 169.315" stroke="#BF8BBE" stroke-width="1.8"/>
<path d="M259.857 169.316C259.467 168.076 258.94 167.015 258.274 166.133C257.003 164.437 255.129 163.879 253.831 165.971" stroke="#C1D0EB" stroke-width="1.8"/>
<path d="M253.83 165.969C249.032 164.352 244.424 163.798 239.44 164.798C237.919 165.1 236.403 165.439 234.892 165.813C234.508 165.908 234.108 165.731 233.914 165.383C233.726 165.045 233.22 164.114 232.395 162.587C230.678 159.406 228.208 156.807 224.985 154.792C223.032 153.57 221.186 152.695 219.443 152.164C213.659 150.403 207.099 149.945 201.841 152.522C199.67 153.584 197.723 154.932 195.997 156.564C193.7 158.731 191.724 161.834 190.189 164.654C190.046 164.919 189.717 165.019 189.454 164.877C189.391 164.843 189.336 164.798 189.291 164.742C187.823 162.936 186.039 161.215 183.936 159.576C183.368 159.13 182.787 158.723 182.191 158.353" stroke="#BF8BBE" stroke-width="1.8"/>
<path d="M182.193 158.355C178.112 155.776 173.508 154.508 168.382 154.552C158.774 154.631 150.549 159.299 146.74 168.181C146.073 169.739 145.571 170.845 145.238 171.499C145.127 171.716 144.91 171.858 144.669 171.873C143.755 171.927 142.817 172.048 141.858 172.24C141.559 172.298 141.284 172.218 141.031 172" stroke="#BE84BA" stroke-width="1.8"/>
<path d="M141.032 172C141.426 171.102 141.755 170.293 142.018 169.571C142.554 168.102 142.554 165.72 141.044 164.859C139.482 163.975 138.003 165.504 137.248 166.866C136.146 168.852 135.51 170.99 135.339 173.279" stroke="#C1D0EB" stroke-width="1.8"/>
<path d="M135.339 173.279L134.91 173.33" stroke="#BE84BA" stroke-width="1.8"/>
<path d="M134.909 173.33L130.465 165.07C130.383 164.914 130.442 164.72 130.596 164.635C133.394 163.113 135.295 160.813 136.296 157.733C136.321 157.656 136.4 157.611 136.479 157.629L139.631 158.378C139.984 158.463 140.26 158.74 140.343 159.094L141.353 163.396C141.446 163.787 141.538 163.787 141.631 163.396L142.649 159.098C142.725 158.78 142.922 158.575 143.237 158.485L146.389 157.592C146.892 157.448 146.891 157.308 146.385 157.17L143.169 156.289C142.919 156.221 142.727 156.02 142.668 155.767L141.65 151.438C141.549 151.004 141.447 151.004 141.345 151.438L140.402 155.413C140.283 155.917 139.973 156.243 139.475 156.389L136.86 157.146C136.382 157.287 136.212 157.118 136.347 156.636C136.524 156.013 136.351 155.246 135.826 154.338C134.517 152.06 132.161 154.008 131.349 155.477C130.03 157.861 129.386 160.266 129.417 162.691C129.423 163.009 129.342 163.033 129.174 162.759L123.783 153.957C123.665 153.762 123.708 153.507 123.887 153.36C126.717 151.049 129.444 146.637 127.768 142.965C127.088 141.471 125.458 141.196 124.265 142.371C122.31 144.291 121.951 148.653 122.289 151.099C122.369 151.677 122.249 151.722 121.928 151.234C120.82 149.552 119.596 147.76 118.255 145.857C117.876 145.321 117.642 144.794 117.555 144.276C117.042 141.281 115.07 136.202 111.823 135.255C110.074 134.745 108.759 136.087 108.794 137.812C108.854 140.72 111.827 143.492 114.154 144.835C114.572 145.08 115.345 145.451 116.472 145.95C116.661 146.036 116.825 146.173 116.945 146.344L121.056 152.366C121.276 152.692 121.214 152.762 120.869 152.576C118.386 151.252 115.821 150.691 113.173 150.895C111.34 151.034 109.726 152.531 111.018 154.435C113.288 157.785 119.267 156.619 122.197 154.902C122.419 154.77 122.707 154.843 122.845 155.064L128.661 164.572C128.839 164.859 128.776 164.927 128.474 164.78C125.747 163.43 122.817 163.04 119.685 163.604C117.857 163.935 115.809 165.711 117.674 167.588C120.636 170.562 126.436 168.293 129.095 166.014C129.193 165.932 129.338 165.944 129.418 166.041C129.429 166.054 129.438 166.067 129.446 166.083L133.748 174.144" stroke="#C1D0EB" stroke-width="1.8"/>
<path d="M133.745 174.143C133.414 174.535 133.093 174.75 132.783 174.784" stroke="#BE84BA" stroke-width="1.8"/>
<path d="M132.784 174.784C130.402 174.045 128.049 173.899 125.727 174.346C124.832 174.517 123.716 174.991 123.303 175.792C122.142 178.023 124.913 179.429 126.662 179.72" stroke="#C1D0EB" stroke-width="1.8"/>
<path d="M126.661 179.719C126.664 179.795 126.685 179.873 126.721 179.95C126.777 180.066 126.775 180.182 126.713 180.295L124.682 184.098" stroke="#BE84BA" stroke-width="1.8"/>
<path d="M124.682 184.1C123.163 184.261 122.129 185.232 121.581 187.012C120.866 189.33 120.747 191.673 121.227 194.041C121.315 194.472 121.215 194.521 120.928 194.189L114.592 186.86C114.48 186.732 114.491 186.537 114.615 186.423C117.27 183.937 119.568 179.583 117.943 176.059C117.184 174.415 115.24 173.984 114.083 175.613C112.39 178.003 112.342 182.043 112.938 184.734C113.009 185.05 112.932 185.094 112.704 184.866L105.406 177.553C105.288 177.436 105.277 177.246 105.382 177.112C107.545 174.339 109.016 170.162 107.462 166.832C106.666 165.135 104.651 164.23 103.394 166.115C101.86 168.409 102.524 172.863 103.407 175.24C103.573 175.694 103.482 175.754 103.132 175.419C101.145 173.526 99.5496 172.067 98.3462 171.042C97.8168 170.591 97.4293 170.073 97.1851 169.489C95.9885 166.629 94.0647 164.148 91.4641 162.614C89.3889 161.392 86.5659 162.36 87.2099 165.179C87.929 168.334 92.1436 170.508 94.9938 171.117C96.0867 171.352 96.7389 171.392 97.4907 172.085C98.9752 173.447 100.647 174.982 102.508 176.689C102.82 176.976 102.772 177.063 102.364 176.948C99.9234 176.268 97.4484 176.234 94.9379 176.848C93.7017 177.15 92.0918 178.253 92.4015 179.712C92.7357 181.265 94.8779 182.122 96.2532 182.118C99.2958 182.104 101.971 181.004 104.28 178.816C104.419 178.685 104.755 178.807 105.036 179.091L112.724 186.913C112.952 187.147 112.91 187.22 112.597 187.132C109.583 186.287 104.429 186.701 102.266 188.92C101.248 189.963 101.312 191.326 102.528 192.155C104.622 193.576 107.636 192.783 109.699 191.522C111.162 190.623 112.387 189.508 113.372 188.172C113.479 188.027 113.683 187.996 113.828 188.103C113.847 188.118 113.865 188.134 113.881 188.152L120.365 195.647C120.598 195.915 120.538 196.023 120.186 195.97C117.081 195.508 112.232 195.847 110.065 198.599C110.006 198.677 109.899 198.697 109.814 198.647C94.9665 189.749 82.0061 177.832 68.9474 166.078C49.2659 148.356 27.3659 131.39 0.0273438 128.956" stroke="#C1D0EB" stroke-width="1.8"/>
<path d="M0.0273438 122.133C5.84515 122.756 11.5374 123.971 17.1056 125.777C23.742 127.933 30.0251 130.603 35.9561 133.787C47.1265 139.785 57.6692 147.163 67.5844 155.92C68.0128 156.3 68.6609 156.336 69.1712 156.008C69.2216 155.976 69.3035 155.774 69.4181 155.402C69.5163 155.092 69.4549 154.816 69.2353 154.574C50.7845 134.552 26.6468 120.811 0.0273438 115.318" stroke="#C1D0EB" stroke-width="1.8"/>
<path d="M0.0273438 108.762C5.26938 109.291 10.3954 110.39 15.4042 112.059C30.4071 117.061 44.249 125.255 57.0689 134.817C57.3582 135.036 57.7429 135.076 58.0704 134.921C58.3146 134.806 58.451 134.724 58.4797 134.674C58.8263 134.124 58.7949 133.643 58.3842 133.232C42.2733 117.131 22.3326 105.883 0.0273438 101.697" stroke="#C1D0EB" stroke-width="1.8"/>
<path d="M166.001 133.493C160.92 129.788 155.61 135.002 159.506 140.12C162.308 143.804 167.238 144.397 171.658 143.84C171.698 143.834 171.915 143.823 172.31 143.808C172.653 143.797 172.874 143.666 172.975 143.414C174.517 139.464 176.907 130.836 172.784 127.754C171.747 126.977 170.268 126.826 169.051 127.169C166.431 127.91 165.453 130.809 166.296 133.275C166.428 133.663 166.33 133.736 166.001 133.494" stroke="#C1D0EB" stroke-width="1.8"/>
<path d="M191.236 134.962C191.236 135.013 191.255 135.043 191.292 135.054C192.791 135.479 194.375 135.926 196.043 136.396C196.245 136.452 196.4 136.614 196.452 136.819C196.939 138.78 197.412 140.741 197.871 142.697C197.894 142.795 197.938 142.845 197.998 142.845C198.058 142.845 198.1 142.795 198.121 142.697C198.579 140.739 199.052 138.78 199.54 136.819C199.591 136.614 199.747 136.454 199.949 136.396C201.616 135.926 203.198 135.479 204.696 135.054C204.735 135.043 204.756 135.012 204.756 134.958C204.756 134.905 204.735 134.878 204.696 134.867C203.199 134.441 201.616 133.994 199.949 133.524C199.747 133.468 199.591 133.307 199.54 133.102C199.052 131.14 198.579 129.18 198.121 127.224C198.097 127.125 198.054 127.076 197.994 127.076C197.934 127.076 197.891 127.125 197.871 127.224C197.412 129.181 196.939 131.14 196.452 133.102C196.4 133.307 196.245 133.467 196.043 133.524C194.375 133.994 192.793 134.441 191.292 134.867C191.255 134.878 191.236 134.909 191.236 134.962Z" stroke="#C1D0EB" stroke-width="1.8"/>
<path d="M232.929 134.022C232.873 129.705 227.976 129.617 227.177 133.604C226.664 136.18 228.056 139.084 230.035 140.901C230.138 140.994 230.28 141.029 230.413 140.996C233.025 140.331 238.611 138.459 238.073 134.998C237.964 134.291 237.563 133.722 236.868 133.289C235.597 132.495 234.34 132.761 233.1 134.09C233.062 134.13 232.999 134.131 232.959 134.093C232.94 134.075 232.929 134.049 232.929 134.023" stroke="#C1D0EB" stroke-width="1.8"/>
<path d="M245.967 146.198C245.967 146.283 246 146.333 246.067 146.35C247.082 146.609 247.861 146.813 248.404 146.959C248.636 147.019 248.812 147.205 248.861 147.438C249.306 149.546 249.58 150.6 249.684 150.6C249.788 150.6 250.063 149.546 250.511 147.438C250.56 147.205 250.736 147.021 250.968 146.959C251.511 146.816 252.291 146.613 253.309 146.354C253.376 146.337 253.409 146.288 253.409 146.206C253.409 146.124 253.376 146.071 253.309 146.054C252.294 145.795 251.515 145.591 250.972 145.445C250.74 145.384 250.564 145.199 250.515 144.966C250.067 142.858 249.793 141.804 249.692 141.804C249.591 141.804 249.311 142.857 248.861 144.962C248.812 145.194 248.636 145.379 248.404 145.44C247.861 145.587 247.082 145.789 246.067 146.05C246 146.067 245.967 146.116 245.967 146.198Z" stroke="#C1D0EB" stroke-width="1.8"/>
<path d="M124.681 184.1C124.732 184.074 124.774 184.141 124.808 184.304C124.827 184.383 124.827 184.462 124.808 184.539C124.186 187.348 124.212 190.15 124.887 192.947C125.07 193.711 124.773 194.521 124.065 194.779C117.076 197.334 112.482 202.195 110.283 209.365C107.786 217.499 109.434 224.509 115.229 230.4C115.386 230.557 115.682 230.765 116.12 231.024" stroke="#F7B1CC" stroke-width="1.8"/>
<path d="M116.119 231.023L116.285 231.258" stroke="#F3A5BD" stroke-width="1.8"/>
<path d="M116.285 231.258C116.274 231.377 116.236 231.487 116.171 231.585C115.346 232.804 114.588 234.061 113.896 235.357C110.128 242.406 110.31 250.46 115.494 256.714C121.238 263.64 130.557 263.07 138.221 260.366C138.353 260.319 138.499 260.388 138.547 260.522C138.556 260.55 138.562 260.58 138.562 260.61V264.04C138.562 264.193 138.664 264.328 138.813 264.37L139.162 264.47" stroke="#F7B1CC" stroke-width="1.8"/>
<path d="M99.248 204.35C99.248 203.031 98.1796 201.96 96.863 201.96C95.5464 201.96 94.478 203.031 94.478 204.35C94.478 205.669 95.5464 206.739 96.863 206.739C98.1796 206.739 99.248 205.669 99.248 204.35Z" stroke="#F8B8CE" stroke-width="1.8"/>
<path d="M86.5308 210.602C86.5308 208.421 84.7652 206.652 82.5876 206.652C80.4101 206.652 78.6445 208.421 78.6445 210.602C78.6445 212.784 80.4101 214.553 82.5876 214.553C84.7652 214.553 86.5308 212.784 86.5308 210.602Z" stroke="#F8B8CE" stroke-width="1.8"/>
<path d="M105.159 220.512C105.159 216.193 101.665 212.694 97.3558 212.694C93.047 212.694 89.5527 216.195 89.5527 220.512C89.5527 224.83 93.047 228.33 97.3558 228.33C101.666 228.33 105.159 224.829 105.159 220.512Z" stroke="#F8B8CE" stroke-width="1.8"/>
<path d="M88.2916 228.753C88.2916 227.759 87.4866 226.952 86.4947 226.952C85.5027 226.952 84.6978 227.759 84.6978 228.753C84.6978 229.746 85.5027 230.553 86.4947 230.553C87.4866 230.553 88.2916 229.746 88.2916 228.753Z" stroke="#F8B8CE" stroke-width="1.8"/>
<path d="M253.795 264.469L255.253 262.816" stroke="#F8B8CE" stroke-width="1.8"/>
<path d="M255.255 262.814L255.568 262.679" stroke="#F3A5BD" stroke-width="1.8"/>
<path d="M255.569 262.679C255.859 262.798 256.146 262.868 256.436 262.887C266.97 263.537 278.137 261.239 282.84 250.488C285.893 243.507 285.272 236.586 280.979 229.722C280.886 229.576 280.714 229.406 280.461 229.212" stroke="#F8B8CE" stroke-width="1.8"/>
<path d="M280.463 229.21C280.404 228.971 280.42 228.789 280.51 228.665" stroke="#F3A5BD" stroke-width="1.8"/>
<path d="M280.51 228.665C281.416 227.975 282.173 227.262 282.78 226.53C286.901 221.522 288.729 215.674 288.262 208.985C287.992 205.106 287.167 201.586 285.786 198.422C285.757 198.358 285.748 198.312 285.759 198.283C285.772 198.24 285.8 198.202 285.842 198.168" stroke="#F8B8CE" stroke-width="1.8"/>
<path d="M302.533 210.169C302.533 208.017 300.792 206.274 298.644 206.274C296.496 206.274 294.757 208.019 294.757 210.169C294.757 212.319 296.498 214.065 298.644 214.065C300.79 214.065 302.533 212.321 302.533 210.17" stroke="#F8B8CE" stroke-width="1.8"/>
<path d="M313.727 217.995C313.727 216.999 312.921 216.191 311.926 216.191C310.932 216.191 310.125 216.999 310.125 217.995C310.125 218.992 310.932 219.8 311.926 219.8C312.921 219.8 313.727 218.992 313.727 217.995Z" stroke="#F8B8CE" stroke-width="1.8"/>
<path d="M307.934 224.483C307.934 220.153 304.431 216.641 300.107 216.641C295.784 216.641 292.279 220.151 292.279 224.483C292.279 228.814 295.783 232.326 300.107 232.326C304.429 232.326 307.934 228.815 307.934 224.483Z" stroke="#F8B8CE" stroke-width="1.8"/>
<path d="M294.824 234.895C294.824 233.44 293.647 232.262 292.196 232.262C290.744 232.262 289.568 233.44 289.568 234.895C289.568 236.349 290.744 237.528 292.196 237.528C293.647 237.528 294.824 236.349 294.824 234.895Z" stroke="#F8B8CE" stroke-width="1.8"/>
<path d="M134.909 173.331C135.092 173.758 134.703 174.029 133.744 174.143" stroke="#F7B1CC" stroke-width="1.8"/>
<path d="M263.074 172.602C262.624 172.204 262.293 171.764 262.081 171.284" stroke="#F8B8CE" stroke-width="1.8"/>
<path d="M253.831 165.969C255.914 166.772 257.922 167.886 259.857 169.314" stroke="#F8B8CE" stroke-width="1.8"/>
<path d="M264.314 174.513C265.372 176.151 266.154 177.835 266.66 179.563" stroke="#F8B8CE" stroke-width="1.8"/>
<path d="M270.074 184.949L274.181 186.283" stroke="#F8B8CE" stroke-width="1.8"/>
<path d="M279.222 189.322C279.535 189.675 279.829 189.956 280.105 190.167C280.175 190.217 280.236 190.237 280.292 190.227C280.361 190.213 280.421 190.17 280.475 190.096" stroke="#F8B8CE" stroke-width="1.8"/>
<path d="M280.51 228.665C279.993 224.794 277.425 222.973 273.832 222.2C273.039 222.028 272.971 222.181 273.624 222.662C276.9 225.064 279.273 228.597 276.904 232.472C276.288 233.476 275.132 234.587 274.062 235.312C272.867 236.121 272.953 236.296 274.32 235.834C275.521 235.428 276.664 234.796 277.75 233.942C279.523 232.547 279.765 231.061 280.461 229.211" stroke="#F0618D" stroke-width="1.8"/>
<path d="M255.569 262.679C255.76 262.513 256.004 262.523 256.3 262.715C256.443 262.805 256.535 262.767 256.574 262.6L256.622 262.405C256.654 262.266 256.729 262.157 256.845 262.078C259.921 259.911 261.286 256.924 260.939 253.116C260.897 252.654 260.784 252.636 260.601 253.064C258.895 257.07 255.492 260.806 251.283 261.87C249.174 262.4 246.974 262.279 244.684 261.504C244.619 261.482 244.555 261.479 244.489 261.491L244.278 261.543C244.061 261.594 244.052 261.672 244.251 261.778C246.481 262.944 248.056 263.525 248.981 263.523C249.758 263.52 250.534 263.52 251.311 263.523C251.963 263.528 252.622 263.446 253.29 263.275C253.945 263.109 254.6 262.954 255.254 262.813" stroke="#F0618D" stroke-width="1.8"/>
<path d="M230.298 264.468C230.274 264.426 230.249 264.396 230.223 264.377" stroke="#F8B8CE" stroke-width="1.8"/>
<path d="M230.222 264.377C230.203 264.04 230.27 263.813 230.421 263.696C232.745 261.918 234.27 259.601 234.997 256.746C235.119 256.268 235.015 256.213 234.684 256.58L232.863 258.586" stroke="#F0618D" stroke-width="1.8"/>
<path d="M232.861 258.585C231.703 257.767 230.909 256.812 230.48 255.721C230.404 255.531 230.188 255.439 230 255.516C229.948 255.536 229.902 255.569 229.865 255.61C226.223 259.642 219.553 258.776 217.876 253.269C217.701 252.69 217.472 252.668 217.188 253.204C215.364 256.685 211.91 260.106 208.208 261.711C200.754 264.954 192.636 262.842 187.357 256.753C186.279 255.515 185.354 253.491 184.638 252.018C184.549 251.833 184.328 251.755 184.144 251.844C184.121 251.855 184.098 251.87 184.077 251.887C183.529 252.314 182.879 252.801 182.129 253.348C179.621 255.169 176.356 256.204 173.455 256.374C168.21 256.685 163.99 254.822 160.794 250.782C158.194 247.504 157.49 243.453 157.625 239.447C157.632 239.211 157.496 238.995 157.28 238.905C156.085 238.406 154.932 237.862 153.821 237.272C149.91 235.205 146.933 230.776 146.733 226.294" stroke="#F16E9D" stroke-width="1.8"/>
<path d="M146.732 226.296C147.68 227.011 148.634 227.539 149.59 227.882C150.276 228.129 150.339 228.018 149.777 227.551C148.402 226.407 147.211 224.911 146.204 223.066" stroke="#F0618D" stroke-width="1.8"/>
<path d="M146.204 223.066C146.588 222.444 147.232 221.221 148.136 219.398C149.4 216.839 151.428 214.801 154.222 213.284C155.514 212.583 156.989 212.142 158.512 211.663C158.695 211.606 158.796 211.412 158.738 211.23C158.715 211.155 158.667 211.09 158.603 211.047C151.432 206.191 149.978 196.685 155.614 190.141C157.697 187.722 160.095 186.369 162.86 185.23C163.051 185.151 163.14 184.931 163.061 184.741C163.054 184.726 163.047 184.711 163.039 184.697C159.366 178.316 160.762 170.061 165.496 164.687C168.517 161.253 172.97 159.175 177.562 158.959C179.3 158.877 180.844 158.676 182.192 158.357" stroke="#F16E9D" stroke-width="1.8"/>
<path d="M217.477 161.958C218 162.449 218.634 162.869 219.382 163.217C221.66 164.285 223.464 162.249 223.31 160.003C223.239 158.96 222.504 157.924 221.704 157.275C218.453 154.63 214.413 154.598 210.335 155.025C208.712 155.192 207.071 156.097 207.254 157.901C207.516 160.482 211.539 159.335 213.145 159.662C214.757 159.988 216.201 160.754 217.479 161.96" stroke="#F38BB2" stroke-width="1.8"/>
<path d="M202.235 171.311C202.893 171.739 203.355 172.03 203.623 172.188C204.354 172.618 204.467 172.491 203.961 171.809C199.85 166.293 193.128 163.631 186.621 166.755C182.924 168.528 180.67 171.865 180.019 175.868C180.004 175.965 180.069 176.058 180.167 176.073C180.181 176.075 180.196 176.075 180.21 176.074C180.311 176.066 180.39 176.004 180.449 175.891C184.285 168.602 191.432 165.969 198.981 169.598C200.606 170.382 201.691 170.953 202.237 171.311" stroke="#F0618D" stroke-width="1.8"/>
<path d="M224.02 169.555C223.704 169.839 223.501 170.039 223.411 170.156C222.865 170.868 222.983 170.994 223.764 170.535C230.873 166.368 236.653 168.476 241.403 174.749C241.448 174.808 241.533 174.82 241.593 174.774C241.607 174.764 241.618 174.751 241.626 174.737C241.684 174.641 241.699 174.521 241.674 174.375C240.632 168.584 236.164 165.541 230.443 166.378C228.12 166.718 225.977 167.778 224.02 169.556" stroke="#F0618D" stroke-width="1.8"/>
<path d="M253.373 176.788C253.882 177.159 254.439 177.448 255.043 177.652C256.788 178.241 258.184 176.923 257.885 175.17C257.441 172.55 255.417 170.646 253.079 169.551C251.306 168.722 247.378 168.081 246.352 170.4C246.053 171.072 246.583 171.773 247.067 172.132C249.251 173.76 251.353 175.311 253.372 176.788" stroke="#F38BB2" stroke-width="1.8"/>
<path d="M255.616 183.769C255.886 183.758 256.511 183.694 257.488 183.574C262.243 182.984 266.699 184.677 267.609 189.939C267.943 191.855 268.013 193.496 267.819 194.857C267.71 195.624 267.647 196.213 267.628 196.622C267.617 196.861 267.671 196.876 267.788 196.67C269.919 192.961 270.948 188.298 267.948 185.079C264.568 181.451 259.941 181.917 255.628 183.486C255.064 183.694 255.059 183.787 255.616 183.769Z" stroke="#F0618D" stroke-width="1.8"/>
<path d="M176.309 189.235C179.6 188.868 182.339 190.509 184.928 192.608C184.999 192.667 185.059 192.695 185.106 192.692C185.199 192.681 185.221 192.636 185.175 192.556C182.665 188.335 179.622 186.424 176.043 186.825C172.465 187.225 169.917 189.761 168.398 194.432C168.369 194.52 168.401 194.558 168.493 194.547C168.538 194.539 168.59 194.499 168.649 194.428C170.712 191.807 173.022 189.605 176.309 189.235Z" stroke="#F0618D" stroke-width="1.8"/>
<path d="M228.182 191.886C228.778 191.653 229.813 191.461 231.283 191.312C237.846 190.644 240.422 196.466 240.642 201.803C240.701 203.22 240.927 203.249 241.321 201.886C241.473 201.371 241.617 200.563 241.755 199.461C242.07 196.962 241.653 194.887 240.503 193.236C237.214 188.515 230.978 189.125 226.728 191.858C226.137 192.238 226.198 192.374 226.911 192.268C227.212 192.225 227.636 192.098 228.182 191.885" stroke="#F0618D" stroke-width="1.8"/>
<path d="M276.094 206.56C276.571 208.512 276.582 210.619 276.738 212.507C276.937 214.973 279.993 216.259 281.306 213.805C282.525 211.531 281.692 207.744 281.106 205.338C280.522 202.932 279.528 199.181 277.405 197.722C275.111 196.149 272.988 198.698 273.938 200.976C274.669 202.724 275.619 204.604 276.092 206.56" stroke="#F38BB2" stroke-width="1.8"/>
<path d="M250.52 232.461C250.08 233.008 249.787 233.373 249.641 233.556C249.595 233.612 249.605 233.696 249.664 233.742C249.679 233.753 249.695 233.763 249.713 233.767C249.851 233.801 250 233.772 250.158 233.679C254.274 231.231 256.422 227.586 256.602 222.746C256.759 218.638 255.382 215.233 252.472 212.53C251.479 211.606 250.333 210.931 249.038 210.503C248.551 210.343 248.478 210.455 248.824 210.838C254.318 216.984 256.019 225.63 250.521 232.461" stroke="#F0618D" stroke-width="1.8"/>
<path d="M159.533 219.365C161.966 219.13 167.234 218.703 171.073 218.278C172.822 218.087 174.869 217.235 174.106 215.032C173.065 212.036 167.639 212.746 165.317 213.391C163.25 213.968 158.03 215.972 157.41 218.095C157.285 218.513 157.491 218.96 157.892 219.138C158.364 219.347 158.911 219.424 159.533 219.365Z" stroke="#C45A70" stroke-width="1.8"/>
<path d="M241.134 219.357C241.756 219.416 242.304 219.339 242.775 219.13C243.175 218.954 243.381 218.507 243.257 218.087C242.636 215.968 237.421 213.968 235.358 213.391C233.036 212.746 227.618 212.036 226.577 215.032C225.814 217.23 227.861 218.083 229.606 218.274C233.442 218.697 238.705 219.123 241.134 219.357Z" stroke="#C45A70" stroke-width="1.8"/>
<path d="M158.209 235.381C158.046 235.217 157.694 234.84 157.156 234.251C156.883 233.955 156.812 233.998 156.946 234.374C158.639 239.213 163.12 242.144 168.041 242.901C175.379 244.032 183.426 241.311 186.642 234.251C186.679 234.171 186.694 234.121 186.686 234.099C186.654 234.031 186.575 234.001 186.507 234.032C186.492 234.039 186.478 234.048 186.468 234.059C183.284 237.299 179.598 239.279 175.408 239.998C169.082 241.082 162.782 240.033 158.211 235.381" stroke="#C45A70" stroke-width="1.8"/>
<path d="M243.842 235.321C239.278 239.993 232.969 241.064 226.633 239.997C222.432 239.291 218.734 237.321 215.537 234.086C215.484 234.033 215.4 234.033 215.346 234.086C215.335 234.097 215.326 234.111 215.319 234.126C215.311 234.148 215.326 234.197 215.363 234.278C218.607 241.34 226.672 244.04 234.018 242.885C238.944 242.108 243.42 239.161 245.101 234.309C245.234 233.929 245.164 233.888 244.891 234.186C244.354 234.778 244.003 235.157 243.842 235.321Z" stroke="#C45A70" stroke-width="1.8"/>
<path d="M211.574 240.789C206.546 241.694 201.484 242.034 196.388 241.809C193.987 241.699 191.74 241.36 189.647 240.789C189.276 240.685 189.161 240.814 189.302 241.176C191.019 245.533 194.732 249.847 199.593 250.552C205.219 251.373 210.172 245.274 212.374 240.974C212.42 240.883 212.385 240.773 212.296 240.726C212.265 240.71 212.23 240.703 212.195 240.706C211.948 240.732 211.742 240.76 211.574 240.789Z" stroke="#F8B8CE" stroke-width="1.8"/>
<path d="M192.867 257.502C194.677 260.484 197.265 261.742 200.634 261.274C203.602 260.863 205.6 259.217 206.629 256.335C206.651 256.279 206.654 256.227 206.642 256.179C206.633 256.137 206.617 256.096 206.59 256.056C206.505 255.937 206.418 255.934 206.328 256.048C204.025 258.993 201.084 259.969 197.507 258.976C195.769 258.492 194.279 257.744 193.038 256.73C192.575 256.353 192.429 256.454 192.602 257.032C192.615 257.077 192.704 257.235 192.868 257.502" stroke="#F0618D" stroke-width="1.8"/>
<path d="M146.204 223.066C143.283 218.108 145.437 213.264 149.599 210.001C150.741 209.106 151.342 208.634 151.404 208.583C151.904 208.164 151.839 208.03 151.205 208.182C146.645 209.272 143.178 211.535 142.471 216.526C142.015 219.726 142.999 222.563 145.421 225.037C145.851 225.477 146.287 225.897 146.732 226.296" stroke="#F0598D" stroke-width="1.8"/>
<path d="M232.861 258.585C229.858 261.495 226.484 263.285 222.736 263.955C219.884 264.465 216.793 264.172 213.462 263.078C213.285 263.02 212.929 262.838 212.393 262.533C211.822 262.212 211.431 262.056 211.216 262.067C211.014 262.078 210.987 262.153 211.133 262.294C211.738 262.88 212.256 263.326 212.687 263.628C212.904 263.78 213.024 263.944 213.045 264.121C213.058 264.238 213.124 264.303 213.244 264.317C213.429 264.339 213.566 264.388 213.653 264.469" stroke="#F0598D" stroke-width="1.8"/>
<path d="M116.285 231.258C116.378 231.25 116.44 231.281 116.468 231.35C117.711 234.162 119.879 235.607 122.972 235.683C123.585 235.7 123.607 235.592 123.041 235.361C121.066 234.564 119.666 233.287 118.842 231.529C117.685 229.063 117.988 225.701 119.208 223.216C119.248 223.138 119.216 223.041 119.138 223.001C119.114 222.989 119.085 222.982 119.058 222.985C118.957 222.988 118.857 223.033 118.759 223.12C117.932 223.859 117.217 224.759 116.613 225.824C115.789 227.272 115.613 228.807 116.084 230.433C116.137 230.613 116.149 230.81 116.119 231.022" stroke="#F0598D" stroke-width="1.8"/>
<path d="M126.662 179.719C126.839 179.825 126.995 179.791 127.127 179.619C128.688 177.585 130.573 175.973 132.784 174.784" stroke="#F7B1CC" stroke-width="1.8"/>
<path d="M135.339 173.279C135.277 173.321 135.261 173.368 135.287 173.418C135.326 173.503 135.39 173.534 135.478 173.51L141.031 172" stroke="#F7B1CC" stroke-width="1.8"/>
<path d="M145.521 171.861C142.635 174.927 143.298 178.417 144.495 182.077C144.533 182.193 144.642 182.271 144.765 182.272H144.92C145.016 182.272 145.051 182.226 145.028 182.133C144.98 181.936 144.942 181.303 144.913 180.233C144.802 176.234 146.623 173.131 150.435 171.745C152.3 171.065 154.114 170.789 155.874 170.916C155.938 170.922 155.983 170.882 156.009 170.797C156.046 170.683 156.009 170.609 155.894 170.575C152.448 169.599 148.202 169.005 145.522 171.861" stroke="#F0598D" stroke-width="1.8"/>
<path d="M125.671 194.018C123.517 198.63 125.154 203.94 129.173 206.795C129.55 207.06 129.685 206.966 129.579 206.512C129.555 206.411 129.449 206.235 129.261 205.982C128.774 205.334 128.235 204.166 127.647 202.481C125.118 195.227 130.389 190.671 136.567 188.656C136.683 188.619 136.766 188.556 136.814 188.469C136.856 188.394 136.826 188.299 136.75 188.257C136.727 188.245 136.701 188.238 136.675 188.238C133.018 188.211 129.583 188.696 127.094 191.532C126.72 191.958 126.245 192.786 125.671 194.018Z" stroke="#F0598D" stroke-width="1.8"/>
<path d="M138.628 260.202C139.618 260.819 140.697 261.251 141.864 261.501C144.923 262.154 147.589 261.393 149.862 259.219C150.166 258.927 150.12 258.852 149.723 258.992C146.594 260.087 142.512 260.366 139.629 258.582C136.747 256.794 135.173 253.01 134.759 249.712C134.706 249.292 134.618 249.284 134.493 249.688C133.566 252.7 134.076 255.429 136.024 257.877C136.766 258.812 137.634 259.587 138.628 260.204" stroke="#F0598D" stroke-width="1.8"/>
<path d="M230.223 264.377C230.014 264.385 229.854 264.415 229.745 264.469" stroke="#F3A5BD" stroke-width="1.8"/>
<path d="M395.969 0V101.585C373.333 105.802 353.382 117.011 337.095 133.189C336.608 133.675 336.586 134.152 337.031 134.619C337.042 134.633 337.05 134.642 337.054 134.647C337.462 135.148 337.926 135.203 338.445 134.809C349.715 126.294 362.651 118.562 375.953 113.456C382.422 110.974 389.093 109.377 395.969 108.669V115.309C394.445 115.667 392.914 116.039 391.377 116.424C366.099 122.738 344.633 135.39 326.978 154.378C326.371 155.032 326.402 155.581 327.069 156.027C327.077 156.032 327.085 156.038 327.092 156.043C327.45 156.426 327.862 156.414 328.328 156.008C339.567 146.186 351.433 137.945 364.901 131.393C374.924 126.515 385.28 123.41 395.969 122.077V128.86C394.281 129.054 392.592 129.266 390.904 129.497C384.819 130.334 379.039 131.828 373.564 133.982C360.023 139.307 348.182 147.153 336.827 156.721C331.847 160.919 324.917 167.02 316.037 175.023C307.263 182.928 297.747 190.723 287.688 197.1C287.084 197.483 286.469 197.839 285.84 198.168C285.679 198.094 285.584 198.02 285.557 197.949C284.448 195.014 282.508 192.748 280.54 190.369C280.458 190.271 280.435 190.179 280.472 190.094L282.161 188.123C282.261 188.01 282.434 187.997 282.549 188.097C282.562 188.109 282.576 188.123 282.587 188.138C283.395 189.221 284.363 190.167 285.493 190.973C287.712 192.566 291.773 194.025 293.936 191.723C295.419 190.145 293.475 188.357 292.024 187.783C289.201 186.673 286.432 186.42 283.712 187.023C283.18 187.139 283.107 187.005 283.494 186.621L291.183 178.918C291.359 178.74 291.642 178.733 291.827 178.901C294.398 181.278 299.284 183.41 302.436 181.247C303.61 180.442 303.902 179.477 303.311 178.352C301.975 175.798 295.83 176.341 293.651 176.926C293.211 177.045 293.16 176.95 293.495 176.643L298.855 171.768C299.082 171.56 299.368 171.426 299.673 171.381C302.822 170.927 305.679 169.589 307.779 167.208C308.876 165.957 309.429 163.771 308.006 162.599C306.491 161.357 304.4 162.472 303.068 163.619C301.054 165.355 299.594 167.417 298.691 169.801C298.597 170.05 298.445 170.273 298.25 170.45L292.872 175.385C292.554 175.678 292.466 175.619 292.61 175.21C293.524 172.617 294.398 166.874 291.692 165.284C290.165 164.388 288.638 166.177 288.229 167.499C287.219 170.765 288.567 174.521 290.614 177.054C290.739 177.209 290.727 177.433 290.586 177.572L283.28 184.889C283.075 185.097 283.004 185.056 283.066 184.77C283.614 182.212 283.658 177.358 281.587 175.27C280.271 173.948 278.705 174.653 278.009 176.163C276.387 179.685 278.911 184.172 281.535 186.535C281.63 186.622 281.634 186.712 281.547 186.805L279.222 189.322L274.182 186.283C273.415 184.427 271.789 183.436 270.075 184.949L268.843 184.745C268.711 184.722 268.596 184.663 268.501 184.57C267.859 183.928 267.48 183.31 267.364 182.718C267.153 181.642 266.918 180.591 266.66 179.563C268.378 179.924 269.939 179.743 271.343 179.022C272.679 178.337 273.593 176.815 272.475 175.5C271.628 174.509 270.165 174.23 268.858 174.139C267.218 174.022 265.704 174.147 264.315 174.513L263.075 172.601L266.552 166.021C266.607 165.919 266.735 165.879 266.84 165.935C266.854 165.942 266.866 165.951 266.878 165.961C269.585 168.359 275.068 170.45 278.204 167.697C279.357 166.685 279.274 165.152 278.042 164.308C275.426 162.516 270.314 163.463 267.711 164.662C267.297 164.851 267.21 164.751 267.449 164.363L273.293 154.847C273.343 154.766 273.449 154.742 273.531 154.791C276.556 156.615 281.741 157.603 284.554 154.954C285.564 154.006 285.855 152.425 284.61 151.54C282.313 149.904 277.582 151.282 275.26 152.548C274.767 152.816 274.679 152.717 274.994 152.252C276.412 150.176 277.694 148.315 278.842 146.672C279.442 145.812 280.059 145.7 281.108 145.203C283.397 144.115 285.211 142.449 286.546 140.208C288.777 136.471 285.179 133.042 282.011 136.642C280.299 138.586 279.229 140.681 278.803 142.928C278.772 143.085 278.633 143.617 278.386 144.525C278.248 145.037 278.013 145.521 277.682 145.978C276.417 147.708 275.218 149.468 274.08 151.256C273.793 151.71 273.681 151.67 273.741 151.137C274.04 148.564 273.673 144.732 271.905 142.545C270.526 140.845 268.463 141.669 267.941 143.588C266.944 147.276 269.439 151.279 272.283 153.49C272.372 153.558 272.393 153.684 272.335 153.781L266.809 162.779C266.779 162.826 266.715 162.841 266.667 162.811C266.637 162.792 266.618 162.759 266.619 162.722C266.591 160.415 266.063 158.245 265.037 156.214C264.333 154.82 263.14 153.111 261.59 153.342C259.157 153.708 259.415 157.278 260.14 158.918C261.25 161.44 263.028 163.358 265.475 164.669C265.589 164.731 265.631 164.873 265.57 164.988L262.084 171.277L259.861 169.31C259.471 168.07 258.944 167.009 258.279 166.128C257.007 164.431 255.134 163.874 253.835 165.965C249.036 164.348 244.429 163.794 239.444 164.794C237.923 165.096 236.407 165.435 234.897 165.809C234.512 165.904 234.112 165.727 233.919 165.379C233.73 165.041 233.224 164.11 232.4 162.583C230.682 159.402 228.213 156.803 224.99 154.788C223.036 153.566 221.19 152.691 219.448 152.159C213.664 150.399 207.104 149.941 201.846 152.518C199.675 153.58 197.728 154.928 196.002 156.56C193.704 158.727 191.729 161.83 190.194 164.65C190.05 164.915 189.722 165.015 189.458 164.873C189.395 164.839 189.341 164.794 189.296 164.737C187.828 162.932 186.043 161.211 183.941 159.571C183.373 159.126 182.792 158.718 182.196 158.349C178.115 155.771 173.511 154.503 168.385 154.546C158.777 154.626 150.552 159.294 146.743 168.176C146.076 169.734 145.574 170.84 145.241 171.493C145.13 171.711 144.913 171.853 144.672 171.868C143.758 171.921 142.82 172.043 141.861 172.234C141.562 172.293 141.287 172.212 141.034 171.995C141.429 171.097 141.757 170.288 142.021 169.566C142.557 168.096 142.557 165.715 141.047 164.854C139.484 163.969 138.005 165.499 137.251 166.86C136.148 168.847 135.512 170.985 135.342 173.273L134.912 173.325L130.468 165.064C130.386 164.908 130.445 164.714 130.599 164.629C133.398 163.108 135.298 160.807 136.3 157.727C136.324 157.651 136.403 157.606 136.483 157.623L139.634 158.373C139.988 158.457 140.263 158.735 140.347 159.089L141.356 163.391C141.449 163.782 141.542 163.782 141.635 163.391L142.652 159.093C142.729 158.775 142.925 158.569 143.24 158.479L146.392 157.587C146.896 157.443 146.894 157.302 146.388 157.164L143.172 156.284C142.923 156.215 142.73 156.014 142.672 155.762L141.654 151.432C141.553 150.999 141.45 150.999 141.348 151.432L140.405 155.408C140.287 155.912 139.977 156.237 139.479 156.384L136.863 157.141C136.386 157.282 136.215 157.112 136.35 156.631C136.528 156.008 136.354 155.241 135.829 154.333C134.521 152.054 132.164 154.002 131.352 155.472C130.033 157.856 129.389 160.26 129.42 162.686C129.426 163.004 129.345 163.027 129.178 162.754L123.787 153.952C123.668 153.756 123.712 153.502 123.891 153.354C126.72 151.044 129.448 146.631 127.771 142.959C127.091 141.465 125.461 141.19 124.268 142.366C122.313 144.285 121.954 148.648 122.293 151.093C122.372 151.671 122.252 151.717 121.931 151.229C120.823 149.547 119.599 147.755 118.258 145.852C117.879 145.316 117.646 144.788 117.558 144.27C117.045 141.275 115.074 136.197 111.826 135.249C110.077 134.739 108.762 136.082 108.797 137.807C108.858 140.715 111.831 143.487 114.157 144.829C114.576 145.074 115.348 145.446 116.475 145.945C116.665 146.031 116.828 146.168 116.948 146.339L121.059 152.36C121.279 152.687 121.218 152.757 120.872 152.571C118.389 151.246 115.824 150.686 113.176 150.89C111.343 151.029 109.729 152.526 111.021 154.43C113.292 157.779 119.271 156.613 122.2 154.896C122.422 154.765 122.71 154.837 122.848 155.059L128.665 164.567C128.842 164.854 128.779 164.922 128.478 164.774C125.75 163.425 122.821 163.034 119.688 163.599C117.86 163.93 115.812 165.705 117.677 167.582C120.639 170.557 126.439 168.288 129.098 166.009C129.197 165.927 129.341 165.939 129.422 166.036C129.433 166.048 129.441 166.062 129.449 166.077L133.751 174.139C133.419 174.531 133.099 174.745 132.789 174.78C130.407 174.041 128.055 173.895 125.732 174.342C124.837 174.513 123.721 174.987 123.308 175.789C122.147 178.02 124.918 179.425 126.667 179.716C126.67 179.793 126.69 179.87 126.727 179.947C126.783 180.063 126.78 180.179 126.719 180.293L124.687 184.096C123.169 184.257 122.135 185.228 121.586 187.008C120.871 189.326 120.752 191.669 121.233 194.037C121.32 194.468 121.22 194.517 120.934 194.185L114.598 186.856C114.486 186.727 114.497 186.533 114.621 186.419C117.276 183.933 119.574 179.579 117.949 176.055C117.19 174.411 115.246 173.98 114.089 175.609C112.395 177.999 112.348 182.039 112.944 184.73C113.015 185.046 112.937 185.09 112.709 184.861L105.411 177.549C105.294 177.432 105.283 177.242 105.388 177.108C107.55 174.335 109.021 170.158 107.467 166.828C106.672 165.131 104.657 164.226 103.4 166.111C101.865 168.405 102.529 172.859 103.412 175.236C103.579 175.69 103.487 175.75 103.138 175.415C101.15 173.522 99.555 172.063 98.3516 171.038C97.8222 170.587 97.4347 170.069 97.1905 169.485C95.9939 166.625 94.0701 164.144 91.4696 162.61C89.3943 161.388 86.5714 162.356 87.2154 165.175C87.9344 168.33 92.149 170.504 94.9993 171.113C96.0922 171.348 96.7444 171.388 97.4961 172.081C98.9806 173.443 100.652 174.978 102.513 176.685C102.826 176.972 102.778 177.058 102.37 176.944C99.9289 176.264 97.4538 176.23 94.9433 176.844C93.7072 177.146 92.0972 178.249 92.4069 179.708C92.7412 181.261 94.8833 182.118 96.2586 182.114C99.3012 182.1 101.977 181 104.285 178.812C104.425 178.681 104.76 178.803 105.041 179.087L112.73 186.909C112.958 187.143 112.915 187.215 112.603 187.128C109.589 186.283 104.434 186.697 102.272 188.916C101.254 189.959 101.318 191.322 102.534 192.15C104.628 193.572 107.642 192.779 109.705 191.518C111.167 190.619 112.393 189.504 113.378 188.168C113.484 188.023 113.689 187.992 113.833 188.099C113.853 188.114 113.87 188.13 113.887 188.148L120.37 195.643C120.604 195.911 120.544 196.019 120.192 195.966C117.086 195.504 112.237 195.843 110.07 198.595C110.012 198.673 109.904 198.693 109.819 198.642C94.972 189.744 82.0115 177.828 68.9528 166.074C49.2659 148.356 27.3659 131.39 0.0273438 128.956V122.133C5.84515 122.756 11.5374 123.971 17.1056 125.777C23.742 127.933 30.0251 130.603 35.9561 133.787C47.1265 139.785 57.6692 147.163 67.5844 155.92C68.0128 156.3 68.6609 156.336 69.1712 156.008C69.2216 155.976 69.3035 155.774 69.4181 155.402C69.5163 155.092 69.4549 154.816 69.2353 154.574C50.7845 134.552 26.6468 120.811 0.0273438 115.318V108.762C5.26938 109.291 10.3954 110.39 15.4042 112.059C30.4071 117.061 44.249 125.255 57.0689 134.817C57.3582 135.036 57.7429 135.076 58.0704 134.921C58.3146 134.806 58.451 134.724 58.4797 134.674C58.8263 134.124 58.7949 133.643 58.3842 133.232C42.2733 117.131 22.3326 105.883 0.0273438 101.697V0H395.969ZM166.001 133.493C160.92 129.788 155.61 135.002 159.506 140.12C162.308 143.804 167.238 144.398 171.658 143.84C171.698 143.834 171.915 143.823 172.31 143.808C172.653 143.797 172.874 143.666 172.975 143.415C174.517 139.464 176.907 130.837 172.784 127.754C171.747 126.978 170.268 126.826 169.051 127.169C166.431 127.91 165.453 130.809 166.296 133.275C166.428 133.664 166.33 133.736 166.001 133.494V133.493ZM191.236 134.962C191.236 135.013 191.255 135.043 191.292 135.054C192.791 135.479 194.376 135.926 196.043 136.396C196.245 136.452 196.4 136.614 196.452 136.819C196.939 138.78 197.413 140.741 197.871 142.697C197.894 142.795 197.938 142.845 197.998 142.845C198.058 142.845 198.1 142.795 198.121 142.697C198.579 140.739 199.053 138.78 199.54 136.819C199.592 136.614 199.747 136.454 199.949 136.396C201.616 135.926 203.198 135.479 204.696 135.054C204.735 135.043 204.756 135.012 204.756 134.958C204.756 134.905 204.735 134.878 204.696 134.867C203.199 134.441 201.616 133.994 199.949 133.524C199.747 133.468 199.592 133.307 199.54 133.102C199.053 131.14 198.579 129.18 198.121 127.224C198.098 127.125 198.054 127.076 197.994 127.076C197.934 127.076 197.892 127.125 197.871 127.224C197.413 129.181 196.939 131.14 196.452 133.102C196.4 133.307 196.245 133.467 196.043 133.524C194.376 133.994 192.793 134.441 191.292 134.867C191.255 134.878 191.236 134.909 191.236 134.962ZM232.929 134.022C232.873 129.705 227.977 129.617 227.177 133.603C226.664 136.18 228.056 139.084 230.036 140.901C230.138 140.994 230.28 141.029 230.413 140.996C233.025 140.331 238.611 138.459 238.073 134.998C237.964 134.291 237.563 133.722 236.868 133.289C235.597 132.495 234.34 132.761 233.1 134.09C233.062 134.13 232.999 134.131 232.959 134.093C232.94 134.075 232.929 134.049 232.929 134.023V134.022ZM245.969 146.198C245.969 146.283 246.002 146.333 246.069 146.35C247.084 146.609 247.863 146.813 248.406 146.959C248.638 147.019 248.814 147.205 248.863 147.438C249.308 149.546 249.582 150.6 249.686 150.6C249.789 150.6 250.065 149.546 250.512 147.438C250.562 147.205 250.738 147.021 250.97 146.959C251.513 146.816 252.293 146.613 253.311 146.354C253.378 146.337 253.41 146.288 253.41 146.206C253.41 146.124 253.378 146.071 253.311 146.054C252.296 145.795 251.517 145.591 250.974 145.445C250.742 145.384 250.566 145.199 250.517 144.966C250.069 142.858 249.795 141.804 249.694 141.804C249.593 141.804 249.313 142.857 248.863 144.962C248.814 145.194 248.638 145.379 248.406 145.441C247.863 145.587 247.084 145.789 246.069 146.05C246.002 146.067 245.969 146.116 245.969 146.198Z" fill="#3A82F5"/>
<path d="M253.831 165.969C255.915 166.772 257.923 167.886 259.858 169.314L262.08 171.281C262.292 171.763 262.623 172.201 263.074 172.599L264.314 174.512C265.371 176.149 266.153 177.834 266.659 179.561C266.916 180.589 267.15 181.641 267.363 182.717C267.479 183.308 267.859 183.926 268.5 184.569C268.595 184.662 268.709 184.721 268.842 184.744L270.074 184.948L274.181 186.282L279.221 189.321C279.534 189.673 279.828 189.955 280.104 190.165C280.174 190.216 280.235 190.235 280.291 190.226C280.361 190.212 280.421 190.168 280.474 190.094C280.437 190.179 280.459 190.271 280.542 190.369C282.509 192.746 284.45 195.013 285.559 197.949C285.585 198.02 285.679 198.094 285.841 198.168C285.799 198.202 285.772 198.24 285.758 198.283C285.747 198.312 285.758 198.358 285.785 198.422C287.166 201.584 287.992 205.106 288.262 208.985C288.728 215.674 286.901 221.522 282.78 226.53C282.172 227.262 281.417 227.975 280.509 228.665C279.992 224.794 277.424 222.973 273.83 222.2C273.038 222.028 272.97 222.181 273.623 222.662C276.899 225.064 279.272 228.597 276.903 232.472C276.286 233.476 275.131 234.587 274.061 235.311C272.866 236.121 272.952 236.296 274.319 235.834C275.52 235.428 276.663 234.796 277.749 233.942C279.521 232.547 279.764 231.061 280.46 229.21C280.713 229.405 280.884 229.574 280.977 229.72C285.271 236.584 285.89 243.507 282.838 250.487C278.135 261.237 266.969 263.535 256.434 262.886C256.145 262.867 255.857 262.798 255.568 262.678C255.759 262.511 256.003 262.522 256.299 262.714C256.443 262.804 256.534 262.765 256.574 262.599L256.621 262.403C256.653 262.265 256.728 262.156 256.844 262.076C259.92 259.91 261.285 256.923 260.938 253.114C260.896 252.652 260.783 252.634 260.6 253.062C258.894 257.069 255.492 260.805 251.282 261.869C249.173 262.399 246.974 262.277 244.683 261.502C244.619 261.48 244.555 261.478 244.488 261.49L244.278 261.542C244.061 261.593 244.051 261.67 244.25 261.777C246.48 262.943 248.056 263.524 248.981 263.521C249.757 263.519 250.533 263.519 251.31 263.521C251.962 263.527 252.621 263.445 253.289 263.274C253.944 263.107 254.599 262.953 255.253 262.812L253.794 264.465H230.297C230.273 264.422 230.247 264.392 230.221 264.373C230.202 264.035 230.269 263.808 230.421 263.692C232.744 261.914 234.27 259.597 234.997 256.742C235.118 256.264 235.015 256.209 234.683 256.576L232.863 258.582C231.705 257.765 230.91 256.809 230.482 255.718C230.406 255.528 230.19 255.437 230.002 255.513C229.95 255.534 229.904 255.567 229.867 255.608C226.225 259.639 219.555 258.774 217.878 253.266C217.703 252.688 217.474 252.666 217.19 253.202C215.366 256.682 211.911 260.104 208.21 261.709C200.756 264.951 192.638 262.839 187.359 256.751C186.281 255.512 185.356 253.489 184.64 252.015C184.551 251.831 184.33 251.753 184.146 251.842C184.122 251.852 184.099 251.868 184.079 251.884C183.53 252.312 182.881 252.798 182.13 253.345C179.623 255.166 176.358 256.201 173.457 256.372C168.212 256.682 163.992 254.819 160.795 250.779C158.196 247.501 157.492 243.451 157.627 239.444C157.634 239.209 157.497 238.993 157.282 238.903C156.087 238.404 154.934 237.86 153.823 237.269C149.911 235.202 146.934 230.773 146.735 226.292C147.683 227.007 148.637 227.534 149.593 227.878C150.28 228.125 150.343 228.014 149.78 227.547C148.405 226.403 147.214 224.907 146.207 223.062C146.592 222.44 147.236 221.217 148.139 219.394C149.404 216.835 151.431 214.797 154.226 213.281C155.518 212.579 156.993 212.138 158.515 211.659C158.698 211.602 158.799 211.408 158.742 211.226C158.719 211.151 158.671 211.086 158.607 211.043C151.435 206.187 149.981 196.681 155.617 190.137C157.701 187.719 160.098 186.365 162.864 185.226C163.055 185.147 163.143 184.927 163.064 184.737C163.057 184.722 163.051 184.707 163.042 184.693C159.369 178.312 160.765 170.057 165.5 164.683C168.52 161.249 172.974 159.171 177.565 158.955C179.303 158.873 180.848 158.672 182.196 158.353C182.792 158.723 183.373 159.13 183.941 159.576C186.042 161.213 187.828 162.936 189.296 164.742C189.485 164.974 189.826 165.008 190.059 164.818C190.115 164.773 190.161 164.717 190.195 164.654C191.73 161.834 193.706 158.731 196.004 156.564C197.73 154.93 199.677 153.584 201.847 152.522C207.107 149.945 213.666 150.403 219.45 152.164C221.19 152.694 223.038 153.57 224.992 154.792C228.214 156.807 230.684 159.406 232.402 162.587C233.226 164.114 233.732 165.046 233.92 165.383C234.114 165.731 234.514 165.908 234.899 165.813C236.409 165.439 237.925 165.1 239.446 164.798C244.432 163.798 249.038 164.352 253.837 165.969H253.831ZM217.477 161.958C217.999 162.449 218.634 162.869 219.381 163.217C221.66 164.285 223.464 162.249 223.309 160.003C223.238 158.96 222.503 157.924 221.704 157.275C218.452 154.63 214.412 154.598 210.334 155.025C208.712 155.192 207.07 156.096 207.253 157.901C207.515 160.482 211.539 159.335 213.145 159.662C214.756 159.988 216.201 160.754 217.478 161.96L217.477 161.958ZM202.235 171.31C202.892 171.738 203.355 172.029 203.622 172.186C204.354 172.617 204.467 172.49 203.961 171.808C199.85 166.292 193.127 163.63 186.621 166.754C182.923 168.527 180.669 171.864 180.018 175.866C180.003 175.963 180.069 176.056 180.167 176.071C180.181 176.074 180.196 176.074 180.209 176.073C180.31 176.065 180.389 176.003 180.448 175.89C184.285 168.601 191.432 165.968 198.981 169.597C200.606 170.381 201.69 170.952 202.236 171.31H202.235ZM224.019 169.553C223.704 169.838 223.5 170.037 223.41 170.155C222.865 170.867 222.982 170.993 223.764 170.534C230.872 166.367 236.652 168.475 241.403 174.748C241.448 174.807 241.532 174.819 241.592 174.773C241.606 174.763 241.617 174.75 241.625 174.736C241.684 174.64 241.699 174.52 241.673 174.374C240.632 168.583 236.163 165.54 230.443 166.377C228.119 166.717 225.977 167.776 224.019 169.555V169.553ZM253.373 176.786C253.882 177.158 254.438 177.447 255.043 177.65C256.788 178.24 258.184 176.922 257.885 175.169C257.44 172.549 255.417 170.644 253.078 169.549C251.306 168.721 247.377 168.08 246.351 170.398C246.053 171.071 246.582 171.772 247.066 172.13C249.251 173.758 251.352 175.31 253.371 176.786H253.373ZM255.614 183.769C255.885 183.758 256.509 183.694 257.486 183.574C262.241 182.984 266.697 184.677 267.607 189.939C267.942 191.855 268.011 193.496 267.818 194.857C267.708 195.624 267.646 196.213 267.627 196.622C267.616 196.861 267.669 196.876 267.786 196.67C269.917 192.961 270.946 188.298 267.946 185.079C264.566 181.451 259.94 181.917 255.627 183.486C255.062 183.694 255.058 183.787 255.614 183.769ZM176.307 189.233C179.598 188.867 182.338 190.507 184.926 192.607C184.997 192.666 185.057 192.693 185.105 192.69C185.198 192.679 185.219 192.634 185.173 192.555C182.664 188.334 179.62 186.423 176.041 186.823C172.464 187.224 169.915 189.759 168.396 194.431C168.368 194.518 168.399 194.556 168.492 194.545C168.537 194.537 168.589 194.498 168.647 194.426C170.71 191.806 173.02 189.604 176.307 189.233ZM228.18 191.885C228.777 191.651 229.811 191.46 231.282 191.311C237.844 190.643 240.42 196.465 240.64 201.802C240.699 203.219 240.925 203.248 241.32 201.885C241.471 201.37 241.616 200.562 241.753 199.46C242.069 196.961 241.651 194.886 240.501 193.234C237.213 188.514 230.976 189.124 226.726 191.856C226.135 192.237 226.196 192.373 226.909 192.267C227.21 192.224 227.635 192.097 228.18 191.884V191.885ZM276.091 206.559C276.569 208.511 276.58 210.618 276.735 212.505C276.935 214.972 279.991 216.258 281.303 213.804C282.523 211.529 281.689 207.743 281.104 205.337C280.52 202.931 279.526 199.18 277.403 197.721C275.109 196.148 272.986 198.697 273.936 200.975C274.667 202.723 275.617 204.603 276.09 206.559H276.091ZM250.518 232.46C250.079 233.007 249.786 233.372 249.64 233.555C249.593 233.611 249.604 233.694 249.663 233.741C249.678 233.752 249.694 233.761 249.712 233.765C249.85 233.8 249.998 233.771 250.157 233.678C254.273 231.23 256.421 227.585 256.601 222.744C256.758 218.637 255.381 215.231 252.471 212.529C251.478 211.605 250.331 210.929 249.037 210.501C248.549 210.341 248.477 210.454 248.822 210.836C254.317 216.982 256.018 225.629 250.52 232.46H250.518ZM159.532 219.364C161.965 219.129 167.232 218.702 171.072 218.277C172.821 218.086 174.868 217.234 174.105 215.03C173.064 212.035 167.638 212.745 165.315 213.39C163.248 213.967 158.028 215.971 157.409 218.094C157.283 218.512 157.489 218.959 157.89 219.137C158.362 219.346 158.91 219.423 159.532 219.364ZM241.133 219.356C241.755 219.414 242.303 219.338 242.774 219.129C243.174 218.952 243.38 218.505 243.256 218.086C242.635 215.967 237.42 213.967 235.357 213.39C233.035 212.745 227.617 212.035 226.576 215.03C225.813 217.228 227.86 218.081 229.605 218.273C233.441 218.695 238.704 219.122 241.133 219.356ZM158.207 235.378C158.043 235.214 157.691 234.837 157.154 234.248C156.881 233.953 156.81 233.995 156.944 234.371C158.637 239.21 163.117 242.141 168.039 242.898C175.377 244.029 183.424 241.309 186.64 234.248C186.677 234.169 186.692 234.118 186.683 234.096C186.652 234.028 186.573 233.998 186.505 234.029C186.49 234.036 186.476 234.046 186.465 234.057C183.282 237.296 179.595 239.276 175.405 239.995C169.08 241.079 162.779 240.03 158.208 235.378H158.207ZM243.84 235.318C239.276 239.991 232.967 241.061 226.63 239.995C222.429 239.288 218.732 237.318 215.535 234.084C215.482 234.031 215.397 234.031 215.344 234.084C215.333 234.095 215.324 234.109 215.317 234.124C215.309 234.145 215.324 234.195 215.36 234.275C218.605 241.337 226.67 244.037 234.016 242.882C238.941 242.106 243.418 239.158 245.099 234.307C245.231 233.927 245.162 233.886 244.889 234.184C244.351 234.776 244.001 235.154 243.84 235.318ZM211.571 240.786C206.544 241.691 201.482 242.032 196.386 241.806C193.984 241.697 191.737 241.358 189.644 240.786C189.273 240.683 189.158 240.811 189.299 241.173C191.017 245.53 194.729 249.844 199.591 250.55C205.216 251.37 210.169 245.272 212.371 240.971C212.417 240.881 212.382 240.77 212.293 240.724C212.262 240.707 212.228 240.7 212.192 240.703C211.945 240.729 211.739 240.758 211.571 240.786ZM192.864 257.498C194.675 260.48 197.263 261.737 200.632 261.27C203.599 260.858 205.598 259.213 206.627 256.331C206.649 256.275 206.651 256.223 206.639 256.175C206.631 256.133 206.615 256.092 206.587 256.052C206.503 255.933 206.415 255.93 206.325 256.044C204.022 258.988 201.082 259.964 197.504 258.972C195.766 258.488 194.276 257.74 193.036 256.726C192.572 256.349 192.426 256.45 192.599 257.028C192.613 257.073 192.702 257.23 192.866 257.498H192.864Z" fill="#F1749E"/>
<path d="M96.862 206.739C98.1792 206.739 99.247 205.669 99.247 204.35C99.247 203.03 98.1792 201.96 96.862 201.96C95.5448 201.96 94.4771 203.03 94.4771 204.35C94.4771 205.669 95.5448 206.739 96.862 206.739Z" fill="#F1749E"/>
<path d="M298.645 214.065C300.792 214.065 302.533 212.321 302.533 210.169C302.533 208.018 300.792 206.273 298.645 206.273C296.497 206.273 294.756 208.018 294.756 210.169C294.756 212.321 296.497 214.065 298.645 214.065Z" fill="#F1749E"/>
<path d="M82.5876 214.553C84.7654 214.553 86.5308 212.784 86.5308 210.603C86.5308 208.421 84.7654 206.652 82.5876 206.652C80.4099 206.652 78.6445 208.421 78.6445 210.603C78.6445 212.784 80.4099 214.553 82.5876 214.553Z" fill="#F1749E"/>
<path d="M105.06 221.775C105.751 217.513 102.862 213.497 98.6084 212.805C94.3546 212.114 90.3465 215.008 89.656 219.27C88.9655 223.532 91.8541 227.548 96.108 228.239C100.362 228.931 104.37 226.037 105.06 221.775Z" fill="#F1749E"/>
<path d="M311.927 219.8C312.922 219.8 313.728 218.992 313.728 217.995C313.728 216.999 312.922 216.191 311.927 216.191C310.933 216.191 310.126 216.999 310.126 217.995C310.126 218.992 310.933 219.8 311.927 219.8Z" fill="#F1749E"/>
<path d="M300.109 232.326C304.432 232.326 307.936 228.815 307.936 224.483C307.936 220.152 304.432 216.641 300.109 216.641C295.786 216.641 292.281 220.152 292.281 224.483C292.281 228.815 295.786 232.326 300.109 232.326Z" fill="#F1749E"/>
<path d="M86.4952 230.553C87.4876 230.553 88.2921 229.747 88.2921 228.753C88.2921 227.758 87.4876 226.952 86.4952 226.952C85.5027 226.952 84.6982 227.758 84.6982 228.753C84.6982 229.747 85.5027 230.553 86.4952 230.553Z" fill="#F1749E"/>
<path d="M292.199 237.528C293.65 237.528 294.826 236.349 294.826 234.895C294.826 233.441 293.65 232.262 292.199 232.262C290.747 232.262 289.571 233.441 289.571 234.895C289.571 236.349 290.747 237.528 292.199 237.528Z" fill="#F1749E"/>
<path d="M171.072 218.278C167.231 218.705 161.965 219.13 159.532 219.365C158.91 219.424 158.361 219.347 157.891 219.138C157.491 218.96 157.285 218.513 157.409 218.095C158.03 215.972 163.249 213.969 165.316 213.391C167.638 212.746 173.064 212.036 174.105 215.032C174.868 217.234 172.821 218.087 171.072 218.278Z" fill="#8A3E40"/>
<path d="M241.133 219.357C238.704 219.122 233.44 218.695 229.605 218.274C227.86 218.083 225.812 217.231 226.576 215.032C227.617 212.036 233.037 212.746 235.357 213.391C237.42 213.968 242.637 215.968 243.256 218.087C243.382 218.507 243.175 218.954 242.774 219.13C242.302 219.339 241.755 219.416 241.133 219.357Z" fill="#8A3E40"/>
<path d="M158.209 235.381C162.781 240.033 169.082 241.08 175.406 239.998C179.596 239.279 183.282 237.299 186.465 234.059C186.519 234.006 186.603 234.006 186.657 234.059C186.667 234.07 186.677 234.084 186.684 234.099C186.692 234.121 186.677 234.17 186.64 234.251C183.424 241.313 175.378 244.033 168.039 242.901C163.118 242.144 158.637 239.213 156.944 234.374C156.812 233.996 156.881 233.955 157.154 234.251C157.692 234.84 158.044 235.217 158.207 235.381H158.209Z" fill="#8A3E40"/>
<path d="M243.841 235.321C244.002 235.157 244.353 234.778 244.891 234.186C245.164 233.888 245.234 233.931 245.101 234.309C243.42 239.161 238.943 242.108 234.018 242.885C226.672 244.04 218.605 241.34 215.362 234.278C215.325 234.199 215.31 234.148 215.319 234.126C215.35 234.058 215.429 234.028 215.497 234.059C215.512 234.066 215.526 234.076 215.537 234.086C218.734 237.321 222.431 239.291 226.632 239.997C232.968 241.065 239.277 239.993 243.841 235.321Z" fill="#8A3E40"/>
<path d="M202.235 171.311C201.69 170.953 200.604 170.382 198.98 169.599C191.431 165.97 184.283 168.603 180.447 175.891C180.389 176.006 180.309 176.066 180.208 176.074C180.11 176.082 180.024 176.009 180.016 175.91C180.016 175.896 180.016 175.881 180.017 175.868C180.67 171.865 182.924 168.527 186.62 166.755C193.128 163.633 199.849 166.293 203.96 171.809C204.466 172.491 204.353 172.617 203.622 172.188C203.354 172.03 202.892 171.739 202.234 171.311H202.235Z" fill="#E74A7C"/>
<path d="M224.02 169.555C225.978 167.776 228.12 166.717 230.444 166.377C236.165 165.54 240.633 168.583 241.674 174.374C241.7 174.52 241.685 174.64 241.626 174.736C241.588 174.8 241.505 174.819 241.441 174.781C241.427 174.773 241.413 174.76 241.404 174.748C236.653 168.475 230.873 166.368 223.765 170.534C222.983 170.993 222.866 170.867 223.412 170.155C223.502 170.039 223.705 169.838 224.02 169.553V169.555Z" fill="#E74A7C"/>
<path d="M145.52 171.861C148.2 169.005 152.444 169.599 155.892 170.575C156.007 170.609 156.045 170.684 156.007 170.797C155.981 170.882 155.936 170.922 155.872 170.916C154.112 170.789 152.3 171.065 150.433 171.745C146.621 173.131 144.8 176.234 144.911 180.233C144.94 181.303 144.98 181.936 145.026 182.133C145.049 182.226 145.014 182.272 144.918 182.272H144.763C144.639 182.272 144.531 182.193 144.493 182.077C143.296 178.416 142.632 174.927 145.519 171.861H145.52Z" fill="#E74A7C"/>
<path d="M255.627 183.486C259.94 181.917 264.568 181.451 267.946 185.079C270.948 188.297 269.918 192.961 267.786 196.67C267.671 196.878 267.617 196.861 267.627 196.622C267.646 196.213 267.709 195.625 267.818 194.857C268.012 193.496 267.941 191.855 267.608 189.939C266.698 184.677 262.242 182.984 257.487 183.574C256.508 183.693 255.885 183.758 255.615 183.769C255.058 183.788 255.062 183.694 255.627 183.486Z" fill="#E74A7C"/>
<path d="M176.041 186.825C179.619 186.424 182.663 188.334 185.173 192.556C185.221 192.636 185.198 192.681 185.105 192.692C185.057 192.695 184.997 192.667 184.926 192.608C182.338 190.51 179.6 188.868 176.307 189.235C173.019 189.605 170.711 191.807 168.648 194.428C168.589 194.499 168.537 194.54 168.492 194.547C168.399 194.558 168.368 194.52 168.396 194.432C169.915 189.761 172.464 187.225 176.041 186.825Z" fill="#E74A7C"/>
<path d="M125.671 194.018C126.246 192.786 126.72 191.958 127.094 191.532C129.582 188.697 133.016 188.211 136.674 188.238C136.762 188.238 136.833 188.31 136.833 188.396C136.833 188.422 136.826 188.447 136.814 188.469C136.766 188.556 136.684 188.619 136.567 188.656C130.389 190.671 125.118 195.227 127.646 202.481C128.234 204.166 128.773 205.334 129.26 205.982C129.449 206.235 129.555 206.411 129.578 206.512C129.685 206.966 129.55 207.06 129.173 206.795C125.153 203.94 123.516 198.63 125.671 194.018Z" fill="#E74A7C"/>
<path d="M228.182 191.887C227.636 192.098 227.212 192.227 226.91 192.269C226.197 192.376 226.137 192.239 226.728 191.859C230.978 189.127 237.214 188.517 240.503 193.237C241.653 194.889 242.07 196.964 241.755 199.463C241.617 200.564 241.473 201.374 241.321 201.888C240.927 203.249 240.7 203.222 240.642 201.804C240.424 196.467 237.848 190.644 231.283 191.314C229.813 191.463 228.778 191.654 228.182 191.888V191.887Z" fill="#E74A7C"/>
<path d="M146.203 223.066C147.21 224.911 148.401 226.407 149.776 227.551C150.339 228.018 150.276 228.128 149.589 227.882C148.633 227.539 147.681 227.011 146.731 226.296C146.286 225.898 145.848 225.479 145.42 225.037C142.998 222.563 142.014 219.725 142.47 216.526C143.178 211.535 146.644 209.272 151.204 208.182C151.837 208.03 151.904 208.164 151.403 208.583C151.341 208.634 150.74 209.107 149.598 210.001C145.435 213.263 143.28 218.106 146.203 223.066Z" fill="#E74A7C"/>
<path d="M250.519 232.461C256.018 225.63 254.315 216.984 248.822 210.838C248.477 210.455 248.549 210.344 249.036 210.503C250.333 210.931 251.477 211.606 252.471 212.53C255.381 215.233 256.758 218.638 256.601 222.746C256.421 227.587 254.273 231.231 250.157 233.679C249.997 233.772 249.85 233.801 249.712 233.767C249.639 233.746 249.597 233.674 249.616 233.603C249.62 233.585 249.629 233.57 249.641 233.555C249.787 233.372 250.079 233.007 250.519 232.46V232.461Z" fill="#E74A7C"/>
<path d="M280.51 228.665C280.42 228.789 280.404 228.971 280.462 229.211C279.766 231.063 279.524 232.549 277.751 233.942C276.665 234.796 275.52 235.428 274.321 235.834C272.954 236.296 272.868 236.122 274.063 235.312C275.133 234.587 276.29 233.476 276.905 232.472C279.275 228.597 276.901 225.064 273.625 222.662C272.97 222.181 273.04 222.028 273.833 222.2C277.427 222.973 279.994 224.794 280.511 228.665H280.51Z" fill="#E74A7C"/>
<path d="M116.285 231.258L116.119 231.023C116.147 230.811 116.136 230.614 116.083 230.434C115.611 228.809 115.787 227.273 116.612 225.826C117.217 224.761 117.932 223.86 118.759 223.122C118.857 223.034 118.956 222.989 119.057 222.986C119.145 222.981 119.22 223.048 119.225 223.137C119.227 223.165 119.221 223.193 119.209 223.217C117.989 225.703 117.686 229.064 118.843 231.53C119.667 233.288 121.067 234.565 123.041 235.362C123.609 235.593 123.586 235.701 122.973 235.685C119.88 235.608 117.712 234.163 116.469 231.351C116.441 231.283 116.379 231.251 116.286 231.26L116.285 231.258Z" fill="#E74A7C"/>
<path d="M139.628 258.581C142.51 260.365 146.594 260.086 149.722 258.991C150.119 258.85 150.166 258.925 149.862 259.218C147.587 261.393 144.921 262.153 141.863 261.5C140.697 261.249 139.619 260.817 138.627 260.201C137.634 259.584 136.765 258.809 136.024 257.874C134.075 255.426 133.565 252.696 134.493 249.686C134.617 249.282 134.706 249.291 134.759 249.709C135.172 253.006 136.747 256.79 139.628 258.58V258.581Z" fill="#E74A7C"/>
<path d="M255.568 262.679L255.255 262.814C254.6 262.955 253.945 263.11 253.291 263.277C252.624 263.446 251.964 263.529 251.312 263.524C250.535 263.521 249.759 263.521 248.982 263.524C248.057 263.527 246.48 262.946 244.252 261.78C244.053 261.673 244.062 261.595 244.279 261.545L244.489 261.493C244.556 261.479 244.62 261.483 244.685 261.505C246.974 262.28 249.173 262.403 251.284 261.871C255.495 260.808 258.898 257.072 260.602 253.065C260.785 252.637 260.898 252.655 260.94 253.117C261.287 256.924 259.922 259.912 256.846 262.079C256.73 262.158 256.654 262.268 256.623 262.406L256.575 262.601C256.536 262.768 256.444 262.808 256.301 262.716C256.004 262.525 255.761 262.512 255.57 262.681L255.568 262.679Z" fill="#E74A7C"/>
<path d="M192.866 257.502C192.702 257.234 192.613 257.077 192.6 257.032C192.428 256.454 192.574 256.353 193.036 256.73C194.276 257.744 195.766 258.493 197.505 258.976C201.082 259.968 204.022 258.994 206.325 256.048C206.415 255.933 206.503 255.936 206.587 256.056C206.613 256.096 206.631 256.137 206.639 256.179C206.653 256.227 206.649 256.279 206.627 256.335C205.598 259.215 203.601 260.862 200.632 261.274C197.263 261.741 194.673 260.484 192.864 257.502H192.866Z" fill="#E74A7C"/>
<path d="M230.222 264.377C230.013 264.385 229.853 264.415 229.744 264.469H213.652C213.565 264.389 213.429 264.339 213.243 264.317C213.124 264.303 213.057 264.239 213.044 264.122C213.022 263.944 212.903 263.778 212.686 263.628C212.254 263.326 211.737 262.88 211.132 262.294C210.986 262.153 211.015 262.078 211.215 262.067C211.43 262.056 211.823 262.212 212.392 262.533C212.926 262.838 213.284 263.02 213.461 263.078C216.793 264.172 219.884 264.465 222.735 263.955C226.483 263.286 229.857 261.495 232.86 258.585L234.68 256.578C235.012 256.212 235.117 256.268 234.994 256.745C234.268 259.599 232.743 261.916 230.418 263.695C230.267 263.811 230.201 264.039 230.219 264.376L230.222 264.377Z" fill="#E74A7C"/>
<path d="M182.193 158.355C180.843 158.673 179.3 158.874 177.562 158.956C172.971 159.171 168.519 161.25 165.497 164.684C160.762 170.057 159.366 178.313 163.039 184.695C163.143 184.874 163.083 185.102 162.904 185.206C162.891 185.214 162.876 185.221 162.861 185.228C160.094 186.367 157.696 187.721 155.614 190.138C149.978 196.682 151.432 206.19 158.604 211.044C158.762 211.152 158.803 211.367 158.695 211.525C158.651 211.59 158.587 211.637 158.512 211.661C156.989 212.139 155.515 212.581 154.222 213.282C151.43 214.798 149.401 216.836 148.136 219.395C147.233 221.219 146.589 222.442 146.204 223.063C143.283 218.105 145.437 213.261 149.599 209.998C150.741 209.103 151.342 208.631 151.404 208.581C151.904 208.161 151.839 208.027 151.204 208.179C146.645 209.27 143.178 211.532 142.471 216.523C142.015 219.723 142.999 222.56 145.421 225.034C145.851 225.474 146.287 225.894 146.732 226.293C146.931 230.774 149.908 235.204 153.82 237.27C154.931 237.86 156.084 238.404 157.279 238.904C157.494 238.994 157.632 239.21 157.624 239.445C157.489 243.452 158.193 247.503 160.792 250.781C163.989 254.819 168.209 256.684 173.454 256.373C176.356 256.202 179.619 255.166 182.127 253.347C182.878 252.8 183.527 252.312 184.076 251.885C184.237 251.76 184.469 251.788 184.594 251.95C184.61 251.97 184.624 251.993 184.636 252.017C185.351 253.49 186.278 255.513 187.356 256.752C192.634 262.842 200.753 264.953 208.206 261.71C211.908 260.105 215.361 256.684 217.187 253.203C217.471 252.667 217.7 252.688 217.875 253.267C219.553 258.776 226.223 259.64 229.864 255.609C230.001 255.457 230.235 255.448 230.386 255.584C230.427 255.621 230.46 255.668 230.48 255.72C230.91 256.811 231.703 257.766 232.861 258.584C229.858 261.494 226.484 263.284 222.736 263.953C219.884 264.463 216.793 264.171 213.462 263.077C213.285 263.018 212.929 262.837 212.392 262.532C211.822 262.21 211.431 262.055 211.216 262.066C211.014 262.076 210.987 262.152 211.133 262.292C211.737 262.879 212.256 263.325 212.687 263.627C212.904 263.778 213.024 263.942 213.045 264.12C213.058 264.236 213.124 264.302 213.244 264.316C213.429 264.338 213.566 264.387 213.653 264.467H139.164L138.814 264.368C138.666 264.325 138.563 264.19 138.563 264.037V260.607C138.563 260.463 138.447 260.349 138.307 260.349C138.278 260.349 138.248 260.354 138.221 260.364C130.557 263.068 121.238 263.638 115.494 256.711C110.311 250.458 110.128 242.404 113.896 235.354C114.588 234.058 115.345 232.8 116.171 231.582C116.238 231.484 116.276 231.374 116.285 231.256C116.378 231.247 116.439 231.279 116.468 231.347C117.711 234.159 119.879 235.604 122.972 235.681C123.585 235.697 123.607 235.589 123.04 235.358C121.066 234.561 119.666 233.284 118.842 231.526C117.685 229.06 117.988 225.699 119.208 223.213C119.247 223.135 119.216 223.038 119.138 222.999C119.114 222.986 119.085 222.98 119.058 222.982C118.957 222.985 118.857 223.03 118.759 223.118C117.932 223.856 117.217 224.757 116.613 225.822C115.789 227.269 115.613 228.804 116.083 230.43C116.137 230.61 116.149 230.807 116.119 231.019C115.682 230.759 115.385 230.55 115.228 230.394C109.435 224.505 107.786 217.494 110.282 209.36C112.481 202.191 117.075 197.329 124.064 194.774C124.772 194.515 125.069 193.706 124.886 192.942C124.211 190.146 124.184 187.343 124.807 184.533C124.826 184.457 124.826 184.378 124.807 184.298C124.773 184.137 124.731 184.069 124.68 184.095L126.712 180.291C126.773 180.177 126.776 180.062 126.72 179.946C126.683 179.869 126.663 179.791 126.66 179.715C126.838 179.821 126.993 179.787 127.125 179.615C128.686 177.581 130.572 175.969 132.782 174.78C133.092 174.745 133.413 174.531 133.744 174.138C134.703 174.024 135.092 173.753 134.909 173.326L135.339 173.275C135.278 173.317 135.261 173.363 135.287 173.414C135.327 173.499 135.391 173.53 135.478 173.506L141.031 171.996C141.284 172.214 141.559 172.294 141.858 172.236C142.817 172.044 143.755 171.923 144.669 171.869C144.91 171.854 145.127 171.712 145.238 171.495C145.572 170.841 146.073 169.735 146.74 168.177C150.548 159.295 158.773 154.627 168.382 154.548C173.508 154.505 178.112 155.773 182.193 158.351V158.355ZM145.52 171.861C142.635 174.927 143.298 178.417 144.494 182.077C144.533 182.193 144.642 182.271 144.764 182.272H144.92C145.015 182.272 145.051 182.226 145.028 182.133C144.98 181.936 144.942 181.303 144.913 180.233C144.801 176.234 146.623 173.131 150.435 171.745C152.3 171.065 154.113 170.789 155.873 170.916C155.938 170.922 155.983 170.882 156.008 170.797C156.045 170.683 156.008 170.609 155.894 170.575C152.447 169.599 148.201 169.005 145.522 171.861H145.52ZM125.671 194.018C123.517 198.63 125.154 203.94 129.173 206.795C129.55 207.061 129.685 206.966 129.579 206.512C129.555 206.411 129.449 206.235 129.261 205.982C128.774 205.334 128.235 204.167 127.647 202.481C125.118 195.228 130.389 190.671 136.567 188.656C136.683 188.619 136.766 188.557 136.814 188.469C136.856 188.394 136.826 188.3 136.75 188.257C136.727 188.245 136.701 188.238 136.675 188.238C133.018 188.211 129.583 188.696 127.094 191.533C126.72 191.958 126.245 192.786 125.671 194.018ZM138.626 260.202C139.617 260.819 140.696 261.251 141.862 261.501C144.921 262.154 147.587 261.393 149.86 259.219C150.165 258.927 150.118 258.852 149.721 258.992C146.593 260.087 142.51 260.366 139.627 258.582C136.746 256.794 135.171 253.01 134.758 249.712C134.705 249.292 134.616 249.284 134.492 249.688C133.564 252.7 134.074 255.429 136.023 257.877C136.765 258.812 137.633 259.587 138.626 260.204V260.202Z" fill="#F0679D"/>
<path d="M217.478 161.958C216.201 160.753 214.756 159.987 213.145 159.66C211.539 159.334 207.515 160.48 207.253 157.9C207.07 156.095 208.712 155.191 210.334 155.023C214.412 154.597 218.452 154.63 221.704 157.273C222.503 157.923 223.239 158.958 223.31 160.002C223.465 162.248 221.66 164.284 219.381 163.216C218.634 162.869 217.999 162.449 217.477 161.957L217.478 161.958Z" fill="#F5A0C4"/>
<path d="M253.374 176.788C251.355 175.311 249.253 173.76 247.069 172.132C246.585 171.773 246.055 171.072 246.354 170.4C247.38 168.081 251.307 168.722 253.08 169.551C255.418 170.646 257.441 172.55 257.887 175.17C258.186 176.923 256.79 178.241 255.045 177.652C254.441 177.447 253.884 177.159 253.375 176.788H253.374Z" fill="#F5A0C4"/>
<path d="M281.107 205.337C281.691 207.742 282.526 211.531 281.306 213.804C279.995 216.258 276.937 214.971 276.738 212.505C276.582 210.617 276.571 208.511 276.094 206.559C275.62 204.602 274.671 202.723 273.939 200.974C272.99 198.696 275.111 196.147 277.406 197.721C279.529 199.178 280.523 202.931 281.108 205.337H281.107Z" fill="#F5A0C4"/>
<rect x="109" y="261.6" width="179" height="19" fill="#D9D9D9"/>
</svg>
